  0
SECTION
  2
HEADER
  9
$ACADVER
  1
AC1018
  9
$ACADMAINTVER
 70
     0
  9
$DWGCODEPAGE
  3
ANSI_932
  9
$INSBASE
 10
0.0
 20
0.0
 30
0.0
  9
$EXTMIN
 10
1.000000000000000E+20
 20
1.000000000000000E+20
 30
1.000000000000000E+20
  9
$EXTMAX
 10
-1.000000000000000E+20
 20
-1.000000000000000E+20
 30
-1.000000000000000E+20
  9
$LIMMIN
 10
0.0
 20
0.0
  9
$LIMMAX
 10
12.0
 20
9.0
  9
$ORTHOMODE
 70
     0
  9
$REGENMODE
 70
     1
  9
$FILLMODE
 70
     1
  9
$QTEXTMODE
 70
     0
  9
$MIRRTEXT
 70
     1
  9
$LTSCALE
 40
1.0
  9
$ATTMODE
 70
     1
  9
$TEXTSIZE
 40
0.2
  9
$TRACEWID
 40
0.05
  9
$TEXTSTYLE
  7
Standard
  9
$CLAYER
  8
0
  9
$CELTYPE
  6
ByLayer
  9
$CECOLOR
 62
   256
  9
$CELTSCALE
 40
1.0
  9
$DISPSILH
 70
     0
  9
$DIMSCALE
 40
1.0
  9
$DIMASZ
 40
0.18
  9
$DIMEXO
 40
0.0625
  9
$DIMDLI
 40
0.38
  9
$DIMRND
 40
0.0
  9
$DIMDLE
 40
0.0
  9
$DIMEXE
 40
0.18
  9
$DIMTP
 40
0.0
  9
$DIMTM
 40
0.0
  9
$DIMTXT
 40
0.18
  9
$DIMCEN
 40
0.09
  9
$DIMTSZ
 40
0.0
  9
$DIMTOL
 70
     0
  9
$DIMLIM
 70
     0
  9
$DIMTIH
 70
     1
  9
$DIMTOH
 70
     1
  9
$DIMSE1
 70
     0
  9
$DIMSE2
 70
     0
  9
$DIMTAD
 70
     0
  9
$DIMZIN
 70
     0
  9
$DIMBLK
  1

  9
$DIMASO
 70
     1
  9
$DIMSHO
 70
     1
  9
$DIMPOST
  1

  9
$DIMAPOST
  1

  9
$DIMALT
 70
     0
  9
$DIMALTD
 70
     2
  9
$DIMALTF
 40
25.4
  9
$DIMLFAC
 40
1.0
  9
$DIMTOFL
 70
     0
  9
$DIMTVP
 40
0.0
  9
$DIMTIX
 70
     0
  9
$DIMSOXD
 70
     0
  9
$DIMSAH
 70
     0
  9
$DIMBLK1
  1

  9
$DIMBLK2
  1

  9
$DIMSTYLE
  2
Standard
  9
$DIMCLRD
 70
     0
  9
$DIMCLRE
 70
     0
  9
$DIMCLRT
 70
     0
  9
$DIMTFAC
 40
1.0
  9
$DIMGAP
 40
0.09
  9
$DIMJUST
 70
     0
  9
$DIMSD1
 70
     0
  9
$DIMSD2
 70
     0
  9
$DIMTOLJ
 70
     1
  9
$DIMTZIN
 70
     0
  9
$DIMALTZ
 70
     0
  9
$DIMALTTZ
 70
     0
  9
$DIMUPT
 70
     0
  9
$DIMDEC
 70
     4
  9
$DIMTDEC
 70
     4
  9
$DIMALTU
 70
     2
  9
$DIMALTTD
 70
     2
  9
$DIMTXSTY
  7
Standard
  9
$DIMAUNIT
 70
     0
  9
$DIMADEC
 70
     0
  9
$DIMALTRND
 40
0.0
  9
$DIMAZIN
 70
     0
  9
$DIMDSEP
 70
    46
  9
$DIMATFIT
 70
     3
  9
$DIMFRAC
 70
     0
  9
$DIMLDRBLK
  1

  9
$DIMLUNIT
 70
     2
  9
$DIMLWD
 70
    -2
  9
$DIMLWE
 70
    -2
  9
$DIMTMOVE
 70
     0
  9
$LUNITS
 70
     2
  9
$LUPREC
 70
     4
  9
$SKETCHINC
 40
0.1
  9
$FILLETRAD
 40
0.5
  9
$AUNITS
 70
     0
  9
$AUPREC
 70
     0
  9
$MENU
  1
.
  9
$ELEVATION
 40
0.0
  9
$PELEVATION
 40
0.0
  9
$THICKNESS
 40
0.0
  9
$LIMCHECK
 70
     0
  9
$CHAMFERA
 40
0.5
  9
$CHAMFERB
 40
0.5
  9
$CHAMFERC
 40
1.0
  9
$CHAMFERD
 40
0.0
  9
$SKPOLY
 70
     0
  9
$TDCREATE
 40
2456331.499039352
  9
$TDUCREATE
 40
2456331.832372685
  9
$TDUPDATE
 40
2456331.499039364
  9
$TDUUPDATE
 40
2456331.832372697
  9
$TDINDWG
 40
0.0000000116
  9
$TDUSRTIMER
 40
0.0000000116
  9
$USRTIMER
 70
     1
  9
$ANGBASE
 50
0.0
  9
$ANGDIR
 70
     0
  9
$PDMODE
 70
     0
  9
$PDSIZE
 40
0.0
  9
$PLINEWID
 40
0.0
  9
$SPLFRAME
 70
     0
  9
$SPLINETYPE
 70
     6
  9
$SPLINESEGS
 70
     8
  9
$HANDSEED
  5
5B
  9
$SURFTAB1
 70
     6
  9
$SURFTAB2
 70
     6
  9
$SURFTYPE
 70
     6
  9
$SURFU
 70
     6
  9
$SURFV
 70
     6
  9
$UCSBASE
  2

  9
$UCSNAME
  2

  9
$UCSORG
 10
0.0
 20
0.0
 30
0.0
  9
$UCSXDIR
 10
1.0
 20
0.0
 30
0.0
  9
$UCSYDIR
 10
0.0
 20
1.0
 30
0.0
  9
$UCSORTHOREF
  2

  9
$UCSORTHOVIEW
 70
     0
  9
$UCSORGTOP
 10
0.0
 20
0.0
 30
0.0
  9
$UCSORGBOTTOM
 10
0.0
 20
0.0
 30
0.0
  9
$UCSORGLEFT
 10
0.0
 20
0.0
 30
0.0
  9
$UCSORGRIGHT
 10
0.0
 20
0.0
 30
0.0
  9
$UCSORGFRONT
 10
0.0
 20
0.0
 30
0.0
  9
$UCSORGBACK
 10
0.0
 20
0.0
 30
0.0
  9
$PUCSBASE
  2

  9
$PUCSNAME
  2

  9
$PUCSORG
 10
0.0
 20
0.0
 30
0.0
  9
$PUCSXDIR
 10
1.0
 20
0.0
 30
0.0
  9
$PUCSYDIR
 10
0.0
 20
1.0
 30
0.0
  9
$PUCSORTHOREF
  2

  9
$PUCSORTHOVIEW
 70
     0
  9
$PUCSORGTOP
 10
0.0
 20
0.0
 30
0.0
  9
$PUCSORGBOTTOM
 10
0.0
 20
0.0
 30
0.0
  9
$PUCSORGLEFT
 10
0.0
 20
0.0
 30
0.0
  9
$PUCSORGRIGHT
 10
0.0
 20
0.0
 30
0.0
  9
$PUCSORGFRONT
 10
0.0
 20
0.0
 30
0.0
  9
$PUCSORGBACK
 10
0.0
 20
0.0
 30
0.0
  9
$USERI1
 70
     0
  9
$USERI2
 70
     0
  9
$USERI3
 70
     0
  9
$USERI4
 70
     0
  9
$USERI5
 70
     0
  9
$USERR1
 40
0.0
  9
$USERR2
 40
0.0
  9
$USERR3
 40
0.0
  9
$USERR4
 40
0.0
  9
$USERR5
 40
0.0
  9
$WORLDVIEW
 70
     1
  9
$SHADEDGE
 70
     3
  9
$SHADEDIF
 70
    70
  9
$TILEMODE
 70
     1
  9
$MAXACTVP
 70
    64
  9
$PINSBASE
 10
0.0
 20
0.0
 30
0.0
  9
$PLIMCHECK
 70
     0
  9
$PEXTMIN
 10
1.000000000000000E+20
 20
1.000000000000000E+20
 30
1.000000000000000E+20
  9
$PEXTMAX
 10
-1.000000000000000E+20
 20
-1.000000000000000E+20
 30
-1.000000000000000E+20
  9
$PLIMMIN
 10
0.0
 20
0.0
  9
$PLIMMAX
 10
12.0
 20
9.0
  9
$UNITMODE
 70
     0
  9
$VISRETAIN
 70
     1
  9
$PLINEGEN
 70
     0
  9
$PSLTSCALE
 70
     1
  9
$TREEDEPTH
 70
  3020
  9
$CMLSTYLE
  2
Standard
  9
$CMLJUST
 70
     0
  9
$CMLSCALE
 40
1.0
  9
$PROXYGRAPHICS
 70
     1
  9
$MEASUREMENT
 70
     0
  9
$CELWEIGHT
370
    -1
  9
$ENDCAPS
280
     0
  9
$JOINSTYLE
280
     0
  9
$LWDISPLAY
290
     1
  9
$INSUNITS
 70
     1
  9
$HYPERLINKBASE
  1

  9
$STYLESHEET
  1

  9
$XEDIT
290
     1
  9
$CEPSNTYPE
380
     0
  9
$PSTYLEMODE
290
     1
  9
$FINGERPRINTGUID
  2
{DD4005D8-84AA-E4A9-0C36-DF34ECD10A0D}
  9
$VERSIONGUID
  2
{FAEB1C32-E019-11D5-929B-00C0DF256EC4}
  9
$EXTNAMES
290
     1
  9
$PSVPSCALE
 40
0.0
  9
$OLESTARTUP
290
     0
  9
$SORTENTS
280
   127
  9
$INDEXCTL
280
     0
  9
$HIDETEXT
280
     1
  9
$XCLIPFRAME
290
     0
  9
$HALOGAP
280
     0
  9
$OBSCOLOR
 70
   257
  9
$OBSLTYPE
280
     0
  9
$INTERSECTIONDISPLAY
280
     0
  9
$INTERSECTIONCOLOR
 70
   257
  9
$DIMASSOC
280
     2
  9
$PROJECTNAME
  1

  0
ENDSEC
  0
SECTION
  2
CLASSES
  0
CLASS
  1
ACDBDICTIONARYWDFLT
  2
AcDbDictionaryWithDefault
  3
ObjectDBX Classes
 90
        0
 91
        3
280
     0
281
     0
  0
CLASS
  1
VISUALSTYLE
  2
AcDbVisualStyle
  3
ObjectDBX Classes
 90
     4095
 91
        3
280
     0
281
     0
  0
ENDSEC
  0
SECTION
  2
TABLES
  0
TABLE
  2
VPORT
  5
8
330
0
100
AcDbSymbolTable
 70
     1
  0
VPORT
  5
29
330
8
100
AcDbSymbolTableRecord
100
AcDbViewportTableRecord
  2
*Active
 70
     0
 10
0.0
 20
0.0
 11
1.0
 21
1.0
 12
0.0
 22
0.0
 13
0.0
 23
0.0
 14
0.5
 24
0.5
 15
0.5
 25
0.5
 16
0.0
 26
0.0
 36
1.0
 17
306.0
 27
396.0
 37
0.0
 40
792.0
 41
0.7727272727272727
 42
50.0
 43
0.0
 44
0.0
 50
0.0
 51
0.0
 71
     0
 72
   100
 73
     1
 74
     3
 75
     0
 76
     0
 77
     0
 78
     0
281
     0
 65
     1
110
0.0
120
0.0
130
0.0
111
1.0
121
0.0
131
0.0
112
0.0
122
1.0
132
0.0
 79
     0
146
0.0
  0
ENDTAB
  0
TABLE
  2
LTYPE
  5
5
330
0
100
AcDbSymbolTable
 70
     1
  0
LTYPE
  5
14
330
5
100
AcDbSymbolTableRecord
100
AcDbLinetypeTableRecord
  2
ByBlock
 70
     0
  3

 72
    65
 73
     0
 40
0.0
  0
LTYPE
  5
15
330
5
100
AcDbSymbolTableRecord
100
AcDbLinetypeTableRecord
  2
ByLayer
 70
     0
  3

 72
    65
 73
     0
 40
0.0
  0
LTYPE
  5
16
330
5
100
AcDbSymbolTableRecord
100
AcDbLinetypeTableRecord
  2
Continuous
 70
     0
  3
Solid line
 72
    65
 73
     0
 40
0.0
  0
ENDTAB
  0
TABLE
  2
LAYER
  5
2
330
0
100
AcDbSymbolTable
 70
     2
  0
LAYER
  5
10
330
2
100
AcDbSymbolTableRecord
100
AcDbLayerTableRecord
  2
0
 70
     0
 62
     7
  6
Continuous
370
    -3
390
F
  0
LAYER
  5
3B
330
2
100
AcDbSymbolTableRecord
100
AcDbLayerTableRecord
  2
Layer 1
 70
     0
 62
     7
  6
Continuous
370
    -3
390
F
  0
ENDTAB
  0
TABLE
  2
STYLE
  5
3
330
0
100
AcDbSymbolTable
 70
     1
  0
STYLE
  5
11
330
3
100
AcDbSymbolTableRecord
100
AcDbTextStyleTableRecord
  2
Standard
 70
     0
 40
0.0
 41
1.0
 50
0.0
 71
     0
 42
0.2
  3
txt
  4

  0
ENDTAB
  0
TABLE
  2
VIEW
  5
6
330
0
100
AcDbSymbolTable
 70
     0
  0
ENDTAB
  0
TABLE
  2
UCS
  5
7
330
0
100
AcDbSymbolTable
 70
     0
  0
ENDTAB
  0
TABLE
  2
APPID
  5
9
330
0
100
AcDbSymbolTable
 70
     1
  0
APPID
  5
12
330
9
100
AcDbSymbolTableRecord
100
AcDbRegAppTableRecord
  2
ACAD
 70
     0
  0
ENDTAB
  0
TABLE
  2
DIMSTYLE
  5
A
330
0
100
AcDbSymbolTable
 70
     1
100
AcDbDimStyleTable
  0
DIMSTYLE
105
27
330
A
100
AcDbSymbolTableRecord
100
AcDbDimStyleTableRecord
  2
Standard
 70
     0
340
11
  0
ENDTAB
  0
TABLE
  2
BLOCK_RECORD
  5
1
330
0
100
AcDbSymbolTable
 70
     5
  0
BLOCK_RECORD
  5
1F
330
1
100
AcDbSymbolTableRecord
100
AcDbBlockTableRecord
  2
*Model_Space
340
22
  0
BLOCK_RECORD
  5
1B
330
1
100
AcDbSymbolTableRecord
100
AcDbBlockTableRecord
  2
*Paper_Space
340
1E
  0
BLOCK_RECORD
  5
23
330
1
100
AcDbSymbolTableRecord
100
AcDbBlockTableRecord
  2
*Paper_Space0
340
26
  0
BLOCK_RECORD
  5
3C
330
1
100
AcDbSymbolTableRecord
100
AcDbBlockTableRecord
  2
block 2
340
0
102
{BLKREFS
331
3D
102
}
  0
BLOCK_RECORD
  5
40
330
1
100
AcDbSymbolTableRecord
100
AcDbBlockTableRecord
  2
block 3
340
0
102
{BLKREFS
331
41
102
}
  0
BLOCK_RECORD
  5
44
330
1
100
AcDbSymbolTableRecord
100
AcDbBlockTableRecord
  2
block 4
340
0
102
{BLKREFS
331
45
102
}
  0
BLOCK_RECORD
  5
56
330
1
100
AcDbSymbolTableRecord
100
AcDbBlockTableRecord
  2
block 5
340
0
102
{BLKREFS
331
57
102
}
  0
ENDTAB
  0
ENDSEC
  0
SECTION
  2
BLOCKS
  0
BLOCK
  5
20
330
1F
100
AcDbEntity
  8
0
100
AcDbBlockBegin
  2
*Model_Space
 70
     0
 71
     0
 10
0.0
 20
0.0
 30
0.0
  3
*Model_Space
  1

  0
ENDBLK
  5
21
330
1F
100
AcDbEntity
  8
0
100
AcDbBlockEnd
  0
BLOCK
  5
1C
330
1B
100
AcDbEntity
 67
     1
  8
0
100
AcDbBlockBegin
  2
*Paper_Space
 70
     0
 71
     0
 10
0.0
 20
0.0
 30
0.0
  3
*Paper_Space
  1

  0
ENDBLK
  5
1D
330
1B
100
AcDbEntity
 67
     1
  8
0
100
AcDbBlockEnd
  0
BLOCK
  5
24
330
23
100
AcDbEntity
  8
0
100
AcDbBlockBegin
  2
*Paper_Space0
 70
     0
 71
     0
 10
0.0
 20
0.0
 30
0.0
  3
*Paper_Space0
  1

  0
ENDBLK
  5
25
330
23
100
AcDbEntity
  8
0
100
AcDbBlockEnd
  0
BLOCK
  5
3E
330
3C
100
AcDbEntity
  8
0
100
AcDbBlockBegin
  2
block 2
 70
     0
 71
     0
 10
0.0
 20
0.0
 30
0.0
  3
block 2
  1

  0
INSERT
  5
41
330
3C
100
AcDbEntity
  8
Layer 1
100
AcDbBlockReference
  2
block 3
 10
0.0
 20
0.0
 30
0.0
  0
ENDBLK
  5
3F
330
3C
100
AcDbEntity
  8
0
100
AcDbBlockEnd
  0
BLOCK
  5
42
330
40
100
AcDbEntity
  8
0
100
AcDbBlockBegin
  2
block 3
 70
     0
 71
     0
 10
0.0
 20
0.0
 30
0.0
  3
block 3
  1

  0
INSERT
  5
45
330
40
100
AcDbEntity
  8
Layer 1
100
AcDbBlockReference
  2
block 4
 10
0.0
 20
0.0
 30
0.0
  0
INSERT
  5
57
330
40
100
AcDbEntity
  8
Layer 1
100
AcDbBlockReference
  2
block 5
 10
0.0
 20
0.0
 30
0.0
  0
ENDBLK
  5
43
330
40
100
AcDbEntity
  8
0
100
AcDbBlockEnd
  0
BLOCK
  5
46
330
44
100
AcDbEntity
  8
0
100
AcDbBlockBegin
  2
block 4
 70
     0
 71
     0
 10
0.0
 20
0.0
 30
0.0
  3
block 4
  1

  0
SPLINE
  5
48
330
44
100
AcDbEntity
  8
Layer 1
370
     0
100
AcDbSpline
210
0.0
220
0.0
230
1.0
 70
    11
 71
     3
 72
   182
 73
   178
 74
     0
 42
0.0000000001
 43
0.0000000001
 40
0.0
 40
0.0
 40
0.0
 40
0.0
 40
1.0
 40
1.0
 40
1.0
 40
2.0
 40
2.0
 40
2.0
 40
3.0
 40
3.0
 40
3.0
 40
4.0
 40
4.0
 40
4.0
 40
5.0
 40
5.0
 40
5.0
 40
6.0
 40
6.0
 40
6.0
 40
7.0
 40
7.0
 40
7.0
 40
8.0
 40
8.0
 40
8.0
 40
9.0
 40
9.0
 40
9.0
 40
10.0
 40
10.0
 40
10.0
 40
11.0
 40
11.0
 40
11.0
 40
12.0
 40
12.0
 40
12.0
 40
13.0
 40
13.0
 40
13.0
 40
14.0
 40
14.0
 40
14.0
 40
15.0
 40
15.0
 40
15.0
 40
16.0
 40
16.0
 40
16.0
 40
17.0
 40
17.0
 40
17.0
 40
18.0
 40
18.0
 40
18.0
 40
19.0
 40
19.0
 40
19.0
 40
20.0
 40
20.0
 40
20.0
 40
21.0
 40
21.0
 40
21.0
 40
22.0
 40
22.0
 40
22.0
 40
23.0
 40
23.0
 40
23.0
 40
24.0
 40
24.0
 40
24.0
 40
25.0
 40
25.0
 40
25.0
 40
26.0
 40
26.0
 40
26.0
 40
27.0
 40
27.0
 40
27.0
 40
28.0
 40
28.0
 40
28.0
 40
29.0
 40
29.0
 40
29.0
 40
30.0
 40
30.0
 40
30.0
 40
31.0
 40
31.0
 40
31.0
 40
32.0
 40
32.0
 40
32.0
 40
33.0
 40
33.0
 40
33.0
 40
34.0
 40
34.0
 40
34.0
 40
35.0
 40
35.0
 40
35.0
 40
36.0
 40
36.0
 40
36.0
 40
37.0
 40
37.0
 40
37.0
 40
38.0
 40
38.0
 40
38.0
 40
39.0
 40
39.0
 40
39.0
 40
40.0
 40
40.0
 40
40.0
 40
41.0
 40
41.0
 40
41.0
 40
42.0
 40
42.0
 40
42.0
 40
43.0
 40
43.0
 40
43.0
 40
44.0
 40
44.0
 40
44.0
 40
45.0
 40
45.0
 40
45.0
 40
46.0
 40
46.0
 40
46.0
 40
47.0
 40
47.0
 40
47.0
 40
48.0
 40
48.0
 40
48.0
 40
49.0
 40
49.0
 40
49.0
 40
50.0
 40
50.0
 40
50.0
 40
51.0
 40
51.0
 40
51.0
 40
52.0
 40
52.0
 40
52.0
 40
53.0
 40
53.0
 40
53.0
 40
54.0
 40
54.0
 40
54.0
 40
55.0
 40
55.0
 40
55.0
 40
56.0
 40
56.0
 40
56.0
 40
57.0
 40
57.0
 40
57.0
 40
58.0
 40
58.0
 40
58.0
 40
59.0
 40
59.0
 40
59.0
 40
59.0
 10
592.9296875
 20
539.39990234375
 30
0.0
 10
592.9296875
 20
443.7998046875
 30
0.0
 10
592.9296875
 20
348.2001953125
 30
0.0
 10
592.9296875
 20
252.599609375
 30
0.0
 10
504.0302734375
 20
252.599609375
 30
0.0
 10
415.1298828125
 20
252.599609375
 30
0.0
 10
326.240234375
 20
252.599609375
 30
0.0
 10
386.0703125
 20
258.2998046875
 30
0.0
 10
420.41015625
 20
289.5
 30
0.0
 10
439.7900390625
 20
335.650390625
 30
0.0
 10
451.8701171875
 20
331.7197265625
 30
0.0
 10
463.25
 20
327.099609375
 30
0.0
 10
475.48046875
 20
323.330078125
 30
0.0
 10
472.759765625
 20
314.7001953125
 30
0.0
 10
468.9501953125
 20
305.6904296875
 30
0.0
 10
465.099609375
 20
294.76953125
 30
0.0
 10
461.2900390625
 20
283.98046875
 30
0.0
 10
448.1904296875
 20
257.1904296875
 30
0.0
 10
466.400390625
 20
257.7900390625
 30
0.0
 10
476.3798828125
 20
258.1201171875
 30
0.0
 10
479.5
 20
277.509765625
 30
0.0
 10
482.6201171875
 20
286.33984375
 30
0.0
 10
486.830078125
 20
298.2998046875
 30
0.0
 10
490.98046875
 20
307.76953125
 30
0.0
 10
494.2998046875
 20
318.7802734375
 30
0.0
 10
507.009765625
 20
321.900390625
 30
0.0
 10
514.3896484375
 20
338.7998046875
 30
0.0
 10
505.98046875
 20
351.8798828125
 30
0.0
 10
512.8896484375
 20
368.099609375
 30
0.0
 10
518.1298828125
 20
386.009765625
 30
0.0
 10
524.7900390625
 20
402.490234375
 30
0.0
 10
567.080078125
 20
396.10986328125
 30
0.0
 10
574.2197265625
 20
430.47998046875
 30
0.0
 10
584.490234375
 20
458.2900390625
 30
0.0
 10
583.1796875
 20
460.66015625
 30
0.0
 10
578.76953125
 20
459.93017578125
 30
0.0
 10
577.349609375
 20
462.18994140625
 30
0.0
 10
579.5595703125
 20
469.02001953125
 30
0.0
 10
581.9501953125
 20
477.10009765625
 30
0.0
 10
585.1396484375
 20
486.18994140625
 30
0.0
 10
588.33984375
 20
495.31005859375
 30
0.0
 10
599.2197265625
 20
516.759765625
 30
0.0
 10
582.5400390625
 20
516.0400390625
 30
0.0
 10
574.330078125
 20
515.68994140625
 30
0.0
 10
572.1201171875
 20
501.259765625
 30
0.0
 10
569.5703125
 20
493.97998046875
 30
0.0
 10
566.080078125
 20
484.009765625
 30
0.0
 10
563.4697265625
 20
476.52978515625
 30
0.0
 10
560.48046875
 20
468.02978515625
 30
0.0
 10
556.2197265625
 20
468.9599609375
 30
0.0
 10
552.9296875
 20
470.85986328125
 30
0.0
 10
548.7998046875
 20
471.919921875
 30
0.0
 10
551.150390625
 20
480.3798828125
 30
0.0
 10
554.2802734375
 20
489.47021484375
 30
0.0
 10
557.8896484375
 20
499.81982421875
 30
0.0
 10
561.2802734375
 20
509.5400390625
 30
0.0
 10
573.6904296875
 20
533.0
 30
0.0
 10
557.8896484375
 20
533.56005859375
 30
0.0
 10
548.4697265625
 20
533.89990234375
 30
0.0
 10
545.25
 20
516.81982421875
 30
0.0
 10
542.3095703125
 20
508.259765625
 30
0.0
 10
538.4599609375
 20
497.0498046875
 30
0.0
 10
535.5
 20
488.0400390625
 30
0.0
 10
531.9296875
 20
478.41015625
 30
0.0
 10
527.9599609375
 20
479.41015625
 30
0.0
 10
524.759765625
 20
481.18994140625
 30
0.0
 10
520.900390625
 20
482.2998046875
 30
0.0
 10
522.6103515625
 20
489.35986328125
 30
0.0
 10
526.16015625
 20
496.7099609375
 30
0.0
 10
529.33984375
 20
505.66015625
 30
0.0
 10
532.83984375
 20
515.52978515625
 30
0.0
 10
542.580078125
 20
540.669921875
 30
0.0
 10
524.150390625
 20
535.509765625
 30
0.0
 10
517.5498046875
 20
533.66015625
 30
0.0
 10
515.490234375
 20
520.52001953125
 30
0.0
 10
513.1201171875
 20
513.4501953125
 30
0.0
 10
510.0400390625
 20
504.2900390625
 30
0.0
 10
506.91015625
 20
497.080078125
 30
0.0
 10
504.6796875
 20
488.7900390625
 30
0.0
 10
501.48046875
 20
488.830078125
 30
0.0
 10
500.099609375
 20
490.68994140625
 30
0.0
 10
496.8896484375
 20
490.740234375
 30
0.0
 10
494.33984375
 20
477.75
 30
0.0
 10
484.6103515625
 20
464.39990234375
 30
0.0
 10
483.26953125
 20
449.85986328125
 30
0.0
 10
481.419921875
 20
429.919921875
 30
0.0
 10
493.830078125
 20
418.2998046875
 30
0.0
 10
505.98046875
 20
408.97998046875
 30
0.0
 10
500.9501953125
 20
392.16015625
 30
0.0
 10
494.240234375
 20
377.01953125
 30
0.0
 10
489.1103515625
 20
360.3095703125
 30
0.0
 10
474.849609375
 20
364.23046875
 30
0.0
 10
463.3203125
 20
370.8603515625
 30
0.0
 10
447.580078125
 20
373.2900390625
 30
0.0
 10
449.150390625
 20
402.169921875
 30
0.0
 10
440.759765625
 20
426.56005859375
 30
0.0
 10
430.0595703125
 20
445.31005859375
 30
0.0
 10
435.580078125
 20
455.080078125
 30
0.0
 10
442.8603515625
 20
463.22998046875
 30
0.0
 10
444.330078125
 20
475.81005859375
 30
0.0
 10
447.740234375
 20
504.93017578125
 30
0.0
 10
431.5400390625
 20
525.3701171875
 30
0.0
 10
417.080078125
 20
538.10009765625
 30
0.0
 10
421.580078125
 20
512.93017578125
 30
0.0
 10
416.48046875
 20
488.2099609375
 30
0.0
 10
398.259765625
 20
481.64990234375
 30
0.0
 10
379.0595703125
 20
494.81005859375
 30
0.0
 10
352.98046875
 20
507.5
 30
0.0
 10
321.0498046875
 20
507.60986328125
 30
0.0
 10
289.56005859375
 20
507.7099609375
 30
0.0
 10
262.89990234375
 20
495.83984375
 30
0.0
 10
243.830078125
 20
482.2998046875
 30
0.0
 10
225.43994140625
 20
488.47021484375
 30
0.0
 10
220.56005859375
 20
514.3798828125
 30
0.0
 10
225.66015625
 20
538.10009765625
 30
0.0
 10
202.85009765625
 20
525.64990234375
 30
0.0
 10
185.14990234375
 20
473.68994140625
 30
0.0
 10
211.39013671875
 20
447.259765625
 30
0.0
 10
201.31005859375
 20
426.6298828125
 30
0.0
 10
191.60986328125
 20
405.60986328125
 30
0.0
 10
193.22021484375
 20
373.2900390625
 30
0.0
 10
178.580078125
 20
362.6904296875
 30
0.0
 10
128.9501953125
 20
364.490234375
 30
0.0
 10
136.1201171875
 20
333.7099609375
 30
0.0
 10
137.52978515625
 20
327.6298828125
 30
0.0
 10
142.41015625
 20
320.740234375
 30
0.0
 10
151.0400390625
 20
319.4296875
 30
0.0
 10
160.85009765625
 20
317.9404296875
 30
0.0
 10
169.14013671875
 20
323.16015625
 30
0.0
 10
177.0
 20
325.919921875
 30
0.0
 10
185.5
 20
328.91015625
 30
0.0
 10
193.2099609375
 20
330.990234375
 30
0.0
 10
201.0
 20
334.3603515625
 30
0.0
 10
208.0498046875
 20
316.5302734375
 30
0.0
 10
220.91015625
 20
301.0595703125
 30
0.0
 10
230.85009765625
 20
287.6396484375
 30
0.0
 10
182.0400390625
 20
286.080078125
 30
0.0
 10
146.169921875
 20
301.2001953125
 30
0.0
 10
121.18994140625
 20
324.6201171875
 30
0.0
 10
96.77978515625
 20
347.51953125
 30
0.0
 10
75.89013671875
 20
378.58984375
 30
0.0
 10
74.47021484375
 20
423.89990234375
 30
0.0
 10
86.60009765625
 20
420.68017578125
 30
0.0
 10
98.16015625
 20
416.8701171875
 30
0.0
 10
110.16015625
 20
413.52001953125
 30
0.0
 10
96.509765625
 20
440.52978515625
 30
0.0
 10
79.830078125
 20
470.1298828125
 30
0.0
 10
63.43994140625
 20
496.580078125
 30
0.0
 10
47.2900390625
 20
469.47021484375
 30
0.0
 10
31.89013671875
 20
441.60986328125
 30
0.0
 10
16.72021484375
 20
413.52001953125
 30
0.0
 10
28.77978515625
 20
416.39013671875
 30
0.0
 10
39.35986328125
 20
420.72998046875
 30
0.0
 10
51.759765625
 20
423.25
 30
0.0
 10
56.47998046875
 20
363.51953125
 30
0.0
 10
80.72998046875
 20
327.6103515625
 30
0.0
 10
114.0498046875
 20
300.6103515625
 30
0.0
 10
140.10986328125
 20
279.509765625
 30
0.0
 10
172.35009765625
 20
267.259765625
 30
0.0
 10
217.22998046875
 20
265.580078125
 30
0.0
 10
230.89013671875
 20
265.0595703125
 30
0.0
 10
246.93017578125
 20
268.080078125
 30
0.0
 10
263.2998046875
 20
265.580078125
 30
0.0
 10
270.7099609375
 20
264.4404296875
 30
0.0
 10
277.7900390625
 20
259.4404296875
 30
0.0
 10
286.009765625
 20
257.1396484375
 30
0.0
 10
294.27978515625
 20
254.8203125
 30
0.0
 10
305.16015625
 20
253.740234375
 30
0.0
 10
314.5595703125
 20
252.599609375
 30
0.0
 10
215.06005859375
 20
252.599609375
 30
0.0
 10
115.56982421875
 20
252.599609375
 30
0.0
 10
16.06982421875
 20
252.599609375
 30
0.0
 10
16.06982421875
 20
348.2001953125
 30
0.0
 10
16.06982421875
 20
443.7998046875
 30
0.0
 10
16.06982421875
 20
539.39990234375
 30
0.0
 10
208.35986328125
 20
539.39990234375
 30
0.0
 10
400.6396484375
 20
539.39990234375
 30
0.0
 10
592.9296875
 20
539.39990234375
 30
0.0
  0
SPLINE
  5
49
330
44
100
AcDbEntity
  8
Layer 1
370
     0
100
AcDbSpline
210
0.0
220
0.0
230
1.0
 70
    11
 71
     3
 72
   170
 73
   166
 74
     0
 42
0.0000000001
 43
0.0000000001
 40
0.0
 40
0.0
 40
0.0
 40
0.0
 40
1.0
 40
1.0
 40
1.0
 40
2.0
 40
2.0
 40
2.0
 40
3.0
 40
3.0
 40
3.0
 40
4.0
 40
4.0
 40
4.0
 40
5.0
 40
5.0
 40
5.0
 40
6.0
 40
6.0
 40
6.0
 40
7.0
 40
7.0
 40
7.0
 40
8.0
 40
8.0
 40
8.0
 40
9.0
 40
9.0
 40
9.0
 40
10.0
 40
10.0
 40
10.0
 40
11.0
 40
11.0
 40
11.0
 40
12.0
 40
12.0
 40
12.0
 40
13.0
 40
13.0
 40
13.0
 40
14.0
 40
14.0
 40
14.0
 40
15.0
 40
15.0
 40
15.0
 40
16.0
 40
16.0
 40
16.0
 40
17.0
 40
17.0
 40
17.0
 40
18.0
 40
18.0
 40
18.0
 40
19.0
 40
19.0
 40
19.0
 40
20.0
 40
20.0
 40
20.0
 40
21.0
 40
21.0
 40
21.0
 40
22.0
 40
22.0
 40
22.0
 40
23.0
 40
23.0
 40
23.0
 40
24.0
 40
24.0
 40
24.0
 40
25.0
 40
25.0
 40
25.0
 40
26.0
 40
26.0
 40
26.0
 40
27.0
 40
27.0
 40
27.0
 40
28.0
 40
28.0
 40
28.0
 40
29.0
 40
29.0
 40
29.0
 40
30.0
 40
30.0
 40
30.0
 40
31.0
 40
31.0
 40
31.0
 40
32.0
 40
32.0
 40
32.0
 40
33.0
 40
33.0
 40
33.0
 40
34.0
 40
34.0
 40
34.0
 40
35.0
 40
35.0
 40
35.0
 40
36.0
 40
36.0
 40
36.0
 40
37.0
 40
37.0
 40
37.0
 40
38.0
 40
38.0
 40
38.0
 40
39.0
 40
39.0
 40
39.0
 40
40.0
 40
40.0
 40
40.0
 40
41.0
 40
41.0
 40
41.0
 40
42.0
 40
42.0
 40
42.0
 40
43.0
 40
43.0
 40
43.0
 40
44.0
 40
44.0
 40
44.0
 40
45.0
 40
45.0
 40
45.0
 40
46.0
 40
46.0
 40
46.0
 40
47.0
 40
47.0
 40
47.0
 40
48.0
 40
48.0
 40
48.0
 40
49.0
 40
49.0
 40
49.0
 40
50.0
 40
50.0
 40
50.0
 40
51.0
 40
51.0
 40
51.0
 40
52.0
 40
52.0
 40
52.0
 40
53.0
 40
53.0
 40
53.0
 40
54.0
 40
54.0
 40
54.0
 40
55.0
 40
55.0
 40
55.0
 40
55.0
 10
582.5400390625
 20
516.0400390625
 30
0.0
 10
599.2197265625
 20
516.759765625
 30
0.0
 10
588.33984375
 20
495.31005859375
 30
0.0
 10
585.1396484375
 20
486.18994140625
 30
0.0
 10
581.9501953125
 20
477.10009765625
 30
0.0
 10
579.5595703125
 20
469.02001953125
 30
0.0
 10
577.349609375
 20
462.18994140625
 30
0.0
 10
578.76953125
 20
459.93017578125
 30
0.0
 10
583.1796875
 20
460.66015625
 30
0.0
 10
584.490234375
 20
458.2900390625
 30
0.0
 10
574.2197265625
 20
430.47998046875
 30
0.0
 10
567.080078125
 20
396.10986328125
 30
0.0
 10
524.7900390625
 20
402.490234375
 30
0.0
 10
518.1298828125
 20
386.009765625
 30
0.0
 10
512.8896484375
 20
368.099609375
 30
0.0
 10
505.98046875
 20
351.8798828125
 30
0.0
 10
514.3896484375
 20
338.7998046875
 30
0.0
 10
507.009765625
 20
321.900390625
 30
0.0
 10
494.2998046875
 20
318.7802734375
 30
0.0
 10
490.98046875
 20
307.76953125
 30
0.0
 10
486.830078125
 20
298.2998046875
 30
0.0
 10
482.6201171875
 20
286.33984375
 30
0.0
 10
479.5
 20
277.509765625
 30
0.0
 10
476.3798828125
 20
258.1201171875
 30
0.0
 10
466.400390625
 20
257.7900390625
 30
0.0
 10
448.1904296875
 20
257.1904296875
 30
0.0
 10
461.2900390625
 20
283.98046875
 30
0.0
 10
465.099609375
 20
294.76953125
 30
0.0
 10
468.9501953125
 20
305.6904296875
 30
0.0
 10
472.759765625
 20
314.7001953125
 30
0.0
 10
475.48046875
 20
323.330078125
 30
0.0
 10
463.25
 20
327.099609375
 30
0.0
 10
451.8701171875
 20
331.7197265625
 30
0.0
 10
439.7900390625
 20
335.650390625
 30
0.0
 10
420.41015625
 20
289.5
 30
0.0
 10
386.0703125
 20
258.2998046875
 30
0.0
 10
326.240234375
 20
252.599609375
 30
0.0
 10
322.33984375
 20
252.599609375
 30
0.0
 10
318.4501953125
 20
252.599609375
 30
0.0
 10
314.5595703125
 20
252.599609375
 30
0.0
 10
305.16015625
 20
253.740234375
 30
0.0
 10
294.27978515625
 20
254.8203125
 30
0.0
 10
286.009765625
 20
257.1396484375
 30
0.0
 10
277.7900390625
 20
259.4404296875
 30
0.0
 10
270.7099609375
 20
264.4404296875
 30
0.0
 10
263.2998046875
 20
265.580078125
 30
0.0
 10
246.93017578125
 20
268.080078125
 30
0.0
 10
230.89013671875
 20
265.0595703125
 30
0.0
 10
217.22998046875
 20
265.580078125
 30
0.0
 10
172.35009765625
 20
267.259765625
 30
0.0
 10
140.10986328125
 20
279.509765625
 30
0.0
 10
114.0498046875
 20
300.6103515625
 30
0.0
 10
80.72998046875
 20
327.6103515625
 30
0.0
 10
56.47998046875
 20
363.51953125
 30
0.0
 10
51.759765625
 20
423.25
 30
0.0
 10
39.35986328125
 20
420.72998046875
 30
0.0
 10
28.77978515625
 20
416.39013671875
 30
0.0
 10
16.72021484375
 20
413.52001953125
 30
0.0
 10
31.89013671875
 20
441.60986328125
 30
0.0
 10
47.2900390625
 20
469.47021484375
 30
0.0
 10
63.43994140625
 20
496.580078125
 30
0.0
 10
79.830078125
 20
470.1298828125
 30
0.0
 10
96.509765625
 20
440.52978515625
 30
0.0
 10
110.16015625
 20
413.52001953125
 30
0.0
 10
98.16015625
 20
416.8701171875
 30
0.0
 10
86.60009765625
 20
420.68017578125
 30
0.0
 10
74.47021484375
 20
423.89990234375
 30
0.0
 10
75.89013671875
 20
378.58984375
 30
0.0
 10
96.77978515625
 20
347.51953125
 30
0.0
 10
121.18994140625
 20
324.6201171875
 30
0.0
 10
146.169921875
 20
301.2001953125
 30
0.0
 10
182.0400390625
 20
286.080078125
 30
0.0
 10
230.85009765625
 20
287.6396484375
 30
0.0
 10
220.91015625
 20
301.0595703125
 30
0.0
 10
208.0498046875
 20
316.5302734375
 30
0.0
 10
201.0
 20
334.3603515625
 30
0.0
 10
193.2099609375
 20
330.990234375
 30
0.0
 10
185.5
 20
328.91015625
 30
0.0
 10
177.0
 20
325.919921875
 30
0.0
 10
169.14013671875
 20
323.16015625
 30
0.0
 10
160.85009765625
 20
317.9404296875
 30
0.0
 10
151.0400390625
 20
319.4296875
 30
0.0
 10
142.41015625
 20
320.740234375
 30
0.0
 10
137.52978515625
 20
327.6298828125
 30
0.0
 10
136.1201171875
 20
333.7099609375
 30
0.0
 10
128.9501953125
 20
364.490234375
 30
0.0
 10
178.580078125
 20
362.6904296875
 30
0.0
 10
193.22021484375
 20
373.2900390625
 30
0.0
 10
191.60986328125
 20
405.60986328125
 30
0.0
 10
201.31005859375
 20
426.6298828125
 30
0.0
 10
211.39013671875
 20
447.259765625
 30
0.0
 10
185.14990234375
 20
473.68994140625
 30
0.0
 10
202.85009765625
 20
525.64990234375
 30
0.0
 10
225.66015625
 20
538.10009765625
 30
0.0
 10
220.56005859375
 20
514.3798828125
 30
0.0
 10
225.43994140625
 20
488.47021484375
 30
0.0
 10
243.830078125
 20
482.2998046875
 30
0.0
 10
262.89990234375
 20
495.83984375
 30
0.0
 10
289.56005859375
 20
507.7099609375
 30
0.0
 10
321.0498046875
 20
507.60986328125
 30
0.0
 10
352.98046875
 20
507.5
 30
0.0
 10
379.0595703125
 20
494.81005859375
 30
0.0
 10
398.259765625
 20
481.64990234375
 30
0.0
 10
416.48046875
 20
488.2099609375
 30
0.0
 10
421.580078125
 20
512.93017578125
 30
0.0
 10
417.080078125
 20
538.10009765625
 30
0.0
 10
431.5400390625
 20
525.3701171875
 30
0.0
 10
447.740234375
 20
504.93017578125
 30
0.0
 10
444.330078125
 20
475.81005859375
 30
0.0
 10
442.8603515625
 20
463.22998046875
 30
0.0
 10
435.580078125
 20
455.080078125
 30
0.0
 10
430.0595703125
 20
445.31005859375
 30
0.0
 10
440.759765625
 20
426.56005859375
 30
0.0
 10
449.150390625
 20
402.169921875
 30
0.0
 10
447.580078125
 20
373.2900390625
 30
0.0
 10
463.3203125
 20
370.8603515625
 30
0.0
 10
474.849609375
 20
364.23046875
 30
0.0
 10
489.1103515625
 20
360.3095703125
 30
0.0
 10
494.240234375
 20
377.01953125
 30
0.0
 10
500.9501953125
 20
392.16015625
 30
0.0
 10
505.98046875
 20
408.97998046875
 30
0.0
 10
493.830078125
 20
418.2998046875
 30
0.0
 10
481.419921875
 20
429.919921875
 30
0.0
 10
483.26953125
 20
449.85986328125
 30
0.0
 10
484.6103515625
 20
464.39990234375
 30
0.0
 10
494.33984375
 20
477.75
 30
0.0
 10
496.8896484375
 20
490.740234375
 30
0.0
 10
500.099609375
 20
490.68994140625
 30
0.0
 10
501.48046875
 20
488.830078125
 30
0.0
 10
504.6796875
 20
488.7900390625
 30
0.0
 10
506.91015625
 20
497.080078125
 30
0.0
 10
510.0400390625
 20
504.2900390625
 30
0.0
 10
513.1201171875
 20
513.4501953125
 30
0.0
 10
515.490234375
 20
520.52001953125
 30
0.0
 10
517.5498046875
 20
533.66015625
 30
0.0
 10
524.150390625
 20
535.509765625
 30
0.0
 10
542.580078125
 20
540.669921875
 30
0.0
 10
532.83984375
 20
515.52978515625
 30
0.0
 10
529.33984375
 20
505.66015625
 30
0.0
 10
526.16015625
 20
496.7099609375
 30
0.0
 10
522.6103515625
 20
489.35986328125
 30
0.0
 10
520.900390625
 20
482.2998046875
 30
0.0
 10
524.759765625
 20
481.18994140625
 30
0.0
 10
527.9599609375
 20
479.41015625
 30
0.0
 10
531.9296875
 20
478.41015625
 30
0.0
 10
535.5
 20
488.0400390625
 30
0.0
 10
538.4599609375
 20
497.0498046875
 30
0.0
 10
542.3095703125
 20
508.259765625
 30
0.0
 10
545.25
 20
516.81982421875
 30
0.0
 10
548.4697265625
 20
533.89990234375
 30
0.0
 10
557.8896484375
 20
533.56005859375
 30
0.0
 10
573.6904296875
 20
533.0
 30
0.0
 10
561.2802734375
 20
509.5400390625
 30
0.0
 10
557.8896484375
 20
499.81982421875
 30
0.0
 10
554.2802734375
 20
489.47021484375
 30
0.0
 10
551.150390625
 20
480.3798828125
 30
0.0
 10
548.7998046875
 20
471.919921875
 30
0.0
 10
552.9296875
 20
470.85986328125
 30
0.0
 10
556.2197265625
 20
468.9599609375
 30
0.0
 10
560.48046875
 20
468.02978515625
 30
0.0
 10
563.4697265625
 20
476.52978515625
 30
0.0
 10
566.080078125
 20
484.009765625
 30
0.0
 10
569.5703125
 20
493.97998046875
 30
0.0
 10
572.1201171875
 20
501.259765625
 30
0.0
 10
574.330078125
 20
515.68994140625
 30
0.0
 10
582.5400390625
 20
516.0400390625
 30
0.0
  0
SPLINE
  5
4A
330
44
100
AcDbEntity
  8
Layer 1
370
     0
100
AcDbSpline
210
0.0
220
0.0
230
1.0
 70
    11
 71
     3
 72
    26
 73
    22
 74
     0
 42
0.0000000001
 43
0.0000000001
 40
0.0
 40
0.0
 40
0.0
 40
0.0
 40
1.0
 40
1.0
 40
1.0
 40
2.0
 40
2.0
 40
2.0
 40
3.0
 40
3.0
 40
3.0
 40
4.0
 40
4.0
 40
4.0
 40
5.0
 40
5.0
 40
5.0
 40
6.0
 40
6.0
 40
6.0
 40
7.0
 40
7.0
 40
7.0
 40
7.0
 10
313.259765625
 20
289.580078125
 30
0.0
 10
368.2001953125
 20
285.900390625
 30
0.0
 10
411.3798828125
 20
327.0498046875
 30
0.0
 10
411.240234375
 20
380.4296875
 30
0.0
 10
411.169921875
 20
408.759765625
 30
0.0
 10
397.2001953125
 20
431.35986328125
 30
0.0
 10
382.0400390625
 20
445.9599609375
 30
0.0
 10
366.4296875
 20
461.0
 30
0.0
 10
342.1796875
 20
473.0
 30
0.0
 10
311.3095703125
 20
469.97021484375
 30
0.0
 10
293.39013671875
 20
468.22021484375
 30
0.0
 10
278.4599609375
 20
461.93017578125
 30
0.0
 10
267.83984375
 20
454.39990234375
 30
0.0
 10
249.85986328125
 20
441.66015625
 30
0.0
 10
235.3798828125
 20
421.9501953125
 30
0.0
 10
230.85009765625
 20
396.64990234375
 30
0.0
 10
225.47998046875
 20
366.599609375
 30
0.0
 10
236.81005859375
 20
338.9501953125
 30
0.0
 10
250.31982421875
 20
322.6796875
 30
0.0
 10
264.60009765625
 20
305.4697265625
 30
0.0
 10
285.580078125
 20
291.4404296875
 30
0.0
 10
313.259765625
 20
289.580078125
 30
0.0
  0
HATCH
  5
4B
330
44
100
AcDbEntity
  8
Layer 1
 62
     7
420
 16777215
100
AcDbHatch
 10
0.0
 20
0.0
 30
0.0
210
0.0
220
0.0
230
1.0
  2
SOLID
 70
     1
 71
     0
 91
        2
 92
        1
 93
        1
 72
     4
 94
        3
 73
     0
 74
     1
 95
      170
 96
      166
 40
0.0
 40
0.0
 40
0.0
 40
0.0
 40
1.0
 40
1.0
 40
1.0
 40
2.0
 40
2.0
 40
2.0
 40
3.0
 40
3.0
 40
3.0
 40
4.0
 40
4.0
 40
4.0
 40
5.0
 40
5.0
 40
5.0
 40
6.0
 40
6.0
 40
6.0
 40
7.0
 40
7.0
 40
7.0
 40
8.0
 40
8.0
 40
8.0
 40
9.0
 40
9.0
 40
9.0
 40
10.0
 40
10.0
 40
10.0
 40
11.0
 40
11.0
 40
11.0
 40
12.0
 40
12.0
 40
12.0
 40
13.0
 40
13.0
 40
13.0
 40
14.0
 40
14.0
 40
14.0
 40
15.0
 40
15.0
 40
15.0
 40
16.0
 40
16.0
 40
16.0
 40
17.0
 40
17.0
 40
17.0
 40
18.0
 40
18.0
 40
18.0
 40
19.0
 40
19.0
 40
19.0
 40
20.0
 40
20.0
 40
20.0
 40
21.0
 40
21.0
 40
21.0
 40
22.0
 40
22.0
 40
22.0
 40
23.0
 40
23.0
 40
23.0
 40
24.0
 40
24.0
 40
24.0
 40
25.0
 40
25.0
 40
25.0
 40
26.0
 40
26.0
 40
26.0
 40
27.0
 40
27.0
 40
27.0
 40
28.0
 40
28.0
 40
28.0
 40
29.0
 40
29.0
 40
29.0
 40
30.0
 40
30.0
 40
30.0
 40
31.0
 40
31.0
 40
31.0
 40
32.0
 40
32.0
 40
32.0
 40
33.0
 40
33.0
 40
33.0
 40
34.0
 40
34.0
 40
34.0
 40
35.0
 40
35.0
 40
35.0
 40
36.0
 40
36.0
 40
36.0
 40
37.0
 40
37.0
 40
37.0
 40
38.0
 40
38.0
 40
38.0
 40
39.0
 40
39.0
 40
39.0
 40
40.0
 40
40.0
 40
40.0
 40
41.0
 40
41.0
 40
41.0
 40
42.0
 40
42.0
 40
42.0
 40
43.0
 40
43.0
 40
43.0
 40
44.0
 40
44.0
 40
44.0
 40
45.0
 40
45.0
 40
45.0
 40
46.0
 40
46.0
 40
46.0
 40
47.0
 40
47.0
 40
47.0
 40
48.0
 40
48.0
 40
48.0
 40
49.0
 40
49.0
 40
49.0
 40
50.0
 40
50.0
 40
50.0
 40
51.0
 40
51.0
 40
51.0
 40
52.0
 40
52.0
 40
52.0
 40
53.0
 40
53.0
 40
53.0
 40
54.0
 40
54.0
 40
54.0
 40
55.0
 40
55.0
 40
55.0
 40
55.0
 10
582.5400390625
 20
516.0400390625
 10
599.2197265625
 20
516.759765625
 10
588.33984375
 20
495.31005859375
 10
585.1396484375
 20
486.18994140625
 10
581.9501953125
 20
477.10009765625
 10
579.5595703125
 20
469.02001953125
 10
577.349609375
 20
462.18994140625
 10
578.76953125
 20
459.93017578125
 10
583.1796875
 20
460.66015625
 10
584.490234375
 20
458.2900390625
 10
574.2197265625
 20
430.47998046875
 10
567.080078125
 20
396.10986328125
 10
524.7900390625
 20
402.490234375
 10
518.1298828125
 20
386.009765625
 10
512.8896484375
 20
368.099609375
 10
505.98046875
 20
351.8798828125
 10
514.3896484375
 20
338.7998046875
 10
507.009765625
 20
321.900390625
 10
494.2998046875
 20
318.7802734375
 10
490.98046875
 20
307.76953125
 10
486.830078125
 20
298.2998046875
 10
482.6201171875
 20
286.33984375
 10
479.5
 20
277.509765625
 10
476.3798828125
 20
258.1201171875
 10
466.400390625
 20
257.7900390625
 10
448.1904296875
 20
257.1904296875
 10
461.2900390625
 20
283.98046875
 10
465.099609375
 20
294.76953125
 10
468.9501953125
 20
305.6904296875
 10
472.759765625
 20
314.7001953125
 10
475.48046875
 20
323.330078125
 10
463.25
 20
327.099609375
 10
451.8701171875
 20
331.7197265625
 10
439.7900390625
 20
335.650390625
 10
420.41015625
 20
289.5
 10
386.0703125
 20
258.2998046875
 10
326.240234375
 20
252.599609375
 10
322.33984375
 20
252.599609375
 10
318.4501953125
 20
252.599609375
 10
314.5595703125
 20
252.599609375
 10
305.16015625
 20
253.740234375
 10
294.27978515625
 20
254.8203125
 10
286.009765625
 20
257.1396484375
 10
277.7900390625
 20
259.4404296875
 10
270.7099609375
 20
264.4404296875
 10
263.2998046875
 20
265.580078125
 10
246.93017578125
 20
268.080078125
 10
230.89013671875
 20
265.0595703125
 10
217.22998046875
 20
265.580078125
 10
172.35009765625
 20
267.259765625
 10
140.10986328125
 20
279.509765625
 10
114.0498046875
 20
300.6103515625
 10
80.72998046875
 20
327.6103515625
 10
56.47998046875
 20
363.51953125
 10
51.759765625
 20
423.25
 10
39.35986328125
 20
420.72998046875
 10
28.77978515625
 20
416.39013671875
 10
16.72021484375
 20
413.52001953125
 10
31.89013671875
 20
441.60986328125
 10
47.2900390625
 20
469.47021484375
 10
63.43994140625
 20
496.580078125
 10
79.830078125
 20
470.1298828125
 10
96.509765625
 20
440.52978515625
 10
110.16015625
 20
413.52001953125
 10
98.16015625
 20
416.8701171875
 10
86.60009765625
 20
420.68017578125
 10
74.47021484375
 20
423.89990234375
 10
75.89013671875
 20
378.58984375
 10
96.77978515625
 20
347.51953125
 10
121.18994140625
 20
324.6201171875
 10
146.169921875
 20
301.2001953125
 10
182.0400390625
 20
286.080078125
 10
230.85009765625
 20
287.6396484375
 10
220.91015625
 20
301.0595703125
 10
208.0498046875
 20
316.5302734375
 10
201.0
 20
334.3603515625
 10
193.2099609375
 20
330.990234375
 10
185.5
 20
328.91015625
 10
177.0
 20
325.919921875
 10
169.14013671875
 20
323.16015625
 10
160.85009765625
 20
317.9404296875
 10
151.0400390625
 20
319.4296875
 10
142.41015625
 20
320.740234375
 10
137.52978515625
 20
327.6298828125
 10
136.1201171875
 20
333.7099609375
 10
128.9501953125
 20
364.490234375
 10
178.580078125
 20
362.6904296875
 10
193.22021484375
 20
373.2900390625
 10
191.60986328125
 20
405.60986328125
 10
201.31005859375
 20
426.6298828125
 10
211.39013671875
 20
447.259765625
 10
185.14990234375
 20
473.68994140625
 10
202.85009765625
 20
525.64990234375
 10
225.66015625
 20
538.10009765625
 10
220.56005859375
 20
514.3798828125
 10
225.43994140625
 20
488.47021484375
 10
243.830078125
 20
482.2998046875
 10
262.89990234375
 20
495.83984375
 10
289.56005859375
 20
507.7099609375
 10
321.0498046875
 20
507.60986328125
 10
352.98046875
 20
507.5
 10
379.0595703125
 20
494.81005859375
 10
398.259765625
 20
481.64990234375
 10
416.48046875
 20
488.2099609375
 10
421.580078125
 20
512.93017578125
 10
417.080078125
 20
538.10009765625
 10
431.5400390625
 20
525.3701171875
 10
447.740234375
 20
504.93017578125
 10
444.330078125
 20
475.81005859375
 10
442.8603515625
 20
463.22998046875
 10
435.580078125
 20
455.080078125
 10
430.0595703125
 20
445.31005859375
 10
440.759765625
 20
426.56005859375
 10
449.150390625
 20
402.169921875
 10
447.580078125
 20
373.2900390625
 10
463.3203125
 20
370.8603515625
 10
474.849609375
 20
364.23046875
 10
489.1103515625
 20
360.3095703125
 10
494.240234375
 20
377.01953125
 10
500.9501953125
 20
392.16015625
 10
505.98046875
 20
408.97998046875
 10
493.830078125
 20
418.2998046875
 10
481.419921875
 20
429.919921875
 10
483.26953125
 20
449.85986328125
 10
484.6103515625
 20
464.39990234375
 10
494.33984375
 20
477.75
 10
496.8896484375
 20
490.740234375
 10
500.099609375
 20
490.68994140625
 10
501.48046875
 20
488.830078125
 10
504.6796875
 20
488.7900390625
 10
506.91015625
 20
497.080078125
 10
510.0400390625
 20
504.2900390625
 10
513.1201171875
 20
513.4501953125
 10
515.490234375
 20
520.52001953125
 10
517.5498046875
 20
533.66015625
 10
524.150390625
 20
535.509765625
 10
542.580078125
 20
540.669921875
 10
532.83984375
 20
515.52978515625
 10
529.33984375
 20
505.66015625
 10
526.16015625
 20
496.7099609375
 10
522.6103515625
 20
489.35986328125
 10
520.900390625
 20
482.2998046875
 10
524.759765625
 20
481.18994140625
 10
527.9599609375
 20
479.41015625
 10
531.9296875
 20
478.41015625
 10
535.5
 20
488.0400390625
 10
538.4599609375
 20
497.0498046875
 10
542.3095703125
 20
508.259765625
 10
545.25
 20
516.81982421875
 10
548.4697265625
 20
533.89990234375
 10
557.8896484375
 20
533.56005859375
 10
573.6904296875
 20
533.0
 10
561.2802734375
 20
509.5400390625
 10
557.8896484375
 20
499.81982421875
 10
554.2802734375
 20
489.47021484375
 10
551.150390625
 20
480.3798828125
 10
548.7998046875
 20
471.919921875
 10
552.9296875
 20
470.85986328125
 10
556.2197265625
 20
468.9599609375
 10
560.48046875
 20
468.02978515625
 10
563.4697265625
 20
476.52978515625
 10
566.080078125
 20
484.009765625
 10
569.5703125
 20
493.97998046875
 10
572.1201171875
 20
501.259765625
 10
574.330078125
 20
515.68994140625
 10
582.5400390625
 20
516.0400390625
 97
        0
 92
        1
 93
        1
 72
     4
 94
        3
 73
     0
 74
     1
 95
       26
 96
       22
 40
0.0
 40
0.0
 40
0.0
 40
0.0
 40
1.0
 40
1.0
 40
1.0
 40
2.0
 40
2.0
 40
2.0
 40
3.0
 40
3.0
 40
3.0
 40
4.0
 40
4.0
 40
4.0
 40
5.0
 40
5.0
 40
5.0
 40
6.0
 40
6.0
 40
6.0
 40
7.0
 40
7.0
 40
7.0
 40
7.0
 10
313.259765625
 20
289.580078125
 10
368.2001953125
 20
285.900390625
 10
411.3798828125
 20
327.0498046875
 10
411.240234375
 20
380.4296875
 10
411.169921875
 20
408.759765625
 10
397.2001953125
 20
431.35986328125
 10
382.0400390625
 20
445.9599609375
 10
366.4296875
 20
461.0
 10
342.1796875
 20
473.0
 10
311.3095703125
 20
469.97021484375
 10
293.39013671875
 20
468.22021484375
 10
278.4599609375
 20
461.93017578125
 10
267.83984375
 20
454.39990234375
 10
249.85986328125
 20
441.66015625
 10
235.3798828125
 20
421.9501953125
 10
230.85009765625
 20
396.64990234375
 10
225.47998046875
 20
366.599609375
 10
236.81005859375
 20
338.9501953125
 10
250.31982421875
 20
322.6796875
 10
264.60009765625
 20
305.4697265625
 10
285.580078125
 20
291.4404296875
 10
313.259765625
 20
289.580078125
 97
        0
 75
     2
 76
     1
 98
        0
  0
SPLINE
  5
4C
330
44
100
AcDbEntity
  8
Layer 1
370
     0
100
AcDbSpline
210
0.0
220
0.0
230
1.0
 70
    11
 71
     3
 72
    26
 73
    22
 74
     0
 42
0.0000000001
 43
0.0000000001
 40
0.0
 40
0.0
 40
0.0
 40
0.0
 40
1.0
 40
1.0
 40
1.0
 40
2.0
 40
2.0
 40
2.0
 40
3.0
 40
3.0
 40
3.0
 40
4.0
 40
4.0
 40
4.0
 40
5.0
 40
5.0
 40
5.0
 40
6.0
 40
6.0
 40
6.0
 40
7.0
 40
7.0
 40
7.0
 40
7.0
 10
411.240234375
 20
380.4296875
 30
0.0
 10
411.3798828125
 20
327.0498046875
 30
0.0
 10
368.2001953125
 20
285.900390625
 30
0.0
 10
313.259765625
 20
289.580078125
 30
0.0
 10
285.580078125
 20
291.4404296875
 30
0.0
 10
264.60009765625
 20
305.4697265625
 30
0.0
 10
250.31982421875
 20
322.6796875
 30
0.0
 10
236.81005859375
 20
338.9501953125
 30
0.0
 10
225.47998046875
 20
366.599609375
 30
0.0
 10
230.85009765625
 20
396.64990234375
 30
0.0
 10
235.3798828125
 20
421.9501953125
 30
0.0
 10
249.85986328125
 20
441.66015625
 30
0.0
 10
267.83984375
 20
454.39990234375
 30
0.0
 10
278.4599609375
 20
461.93017578125
 30
0.0
 10
293.39013671875
 20
468.22021484375
 30
0.0
 10
311.3095703125
 20
469.97021484375
 30
0.0
 10
342.1796875
 20
473.0
 30
0.0
 10
366.4296875
 20
461.0
 30
0.0
 10
382.0400390625
 20
445.9599609375
 30
0.0
 10
397.2001953125
 20
431.35986328125
 30
0.0
 10
411.169921875
 20
408.759765625
 30
0.0
 10
411.240234375
 20
380.4296875
 30
0.0
  0
SPLINE
  5
4D
330
44
100
AcDbEntity
  8
Layer 1
370
     0
100
AcDbSpline
210
0.0
220
0.0
230
1.0
 70
    11
 71
     3
 72
    20
 73
    16
 74
     0
 42
0.0000000001
 43
0.0000000001
 40
0.0
 40
0.0
 40
0.0
 40
0.0
 40
1.0
 40
1.0
 40
1.0
 40
2.0
 40
2.0
 40
2.0
 40
3.0
 40
3.0
 40
3.0
 40
4.0
 40
4.0
 40
4.0
 40
5.0
 40
5.0
 40
5.0
 40
5.0
 10
393.0703125
 20
407.02978515625
 30
0.0
 10
393.4599609375
 20
419.56982421875
 30
0.0
 10
383.0302734375
 20
422.259765625
 30
0.0
 10
371.66015625
 20
420.66015625
 30
0.0
 10
359.830078125
 20
418.990234375
 30
0.0
 10
355.0302734375
 20
414.85986328125
 30
0.0
 10
349.599609375
 20
409.6298828125
 30
0.0
 10
343.9501953125
 20
404.18994140625
 30
0.0
 10
337.2001953125
 20
396.72998046875
 30
0.0
 10
337.919921875
 20
388.2099609375
 30
0.0
 10
338.669921875
 20
379.2900390625
 30
0.0
 10
347.7197265625
 20
375.1796875
 30
0.0
 10
358.6796875
 20
376.5302734375
 30
0.0
 10
373.73046875
 20
378.3896484375
 30
0.0
 10
392.66015625
 20
393.4697265625
 30
0.0
 10
393.0703125
 20
407.02978515625
 30
0.0
  0
SPLINE
  5
4E
330
44
100
AcDbEntity
  8
Layer 1
370
     0
100
AcDbSpline
210
0.0
220
0.0
230
1.0
 70
    11
 71
     3
 72
    11
 73
     7
 74
     0
 42
0.0000000001
 43
0.0000000001
 40
0.0
 40
0.0
 40
0.0
 40
0.0
 40
1.0
 40
1.0
 40
1.0
 40
2.0
 40
2.0
 40
2.0
 40
2.0
 10
302.8798828125
 20
327.2197265625
 30
0.0
 10
324.8701171875
 20
311.5498046875
 30
0.0
 10
366.3701171875
 20
324.1103515625
 30
0.0
 10
371.009765625
 20
345.3896484375
 30
0.0
 10
355.01953125
 20
333.0
 30
0.0
 10
330.6796875
 20
325.6396484375
 30
0.0
 10
302.8798828125
 20
327.2197265625
 30
0.0
  0
SPLINE
  5
4F
330
44
100
AcDbEntity
  8
Layer 1
370
     0
100
AcDbSpline
210
0.0
220
0.0
230
1.0
 70
    11
 71
     3
 72
    14
 73
    10
 74
     0
 42
0.0000000001
 43
0.0000000001
 40
0.0
 40
0.0
 40
0.0
 40
0.0
 40
1.0
 40
1.0
 40
1.0
 40
2.0
 40
2.0
 40
2.0
 40
3.0
 40
3.0
 40
3.0
 40
3.0
 10
297.68994140625
 20
377.830078125
 30
0.0
 10
304.5400390625
 20
381.3603515625
 30
0.0
 10
306.3095703125
 20
395.0
 30
0.0
 10
300.27978515625
 20
401.18994140625
 30
0.0
 10
284.0498046875
 20
406.16015625
 30
0.0
 10
269.10009765625
 20
412.41015625
 30
0.0
 10
252.91015625
 20
417.41015625
 30
0.0
 10
238.22021484375
 20
396.3798828125
 30
0.0
 10
277.9599609375
 20
367.6904296875
 30
0.0
 10
297.68994140625
 20
377.830078125
 30
0.0
  0
SPLINE
  5
50
330
44
100
AcDbEntity
  8
Layer 1
370
     0
100
AcDbSpline
210
0.0
220
0.0
230
1.0
 70
    11
 71
     3
 72
    20
 73
    16
 74
     0
 42
0.0000000001
 43
0.0000000001
 40
0.0
 40
0.0
 40
0.0
 40
0.0
 40
1.0
 40
1.0
 40
1.0
 40
2.0
 40
2.0
 40
2.0
 40
3.0
 40
3.0
 40
3.0
 40
4.0
 40
4.0
 40
4.0
 40
5.0
 40
5.0
 40
5.0
 40
5.0
 10
371.66015625
 20
420.66015625
 30
0.0
 10
383.0302734375
 20
422.259765625
 30
0.0
 10
393.4599609375
 20
419.56982421875
 30
0.0
 10
393.0703125
 20
407.02978515625
 30
0.0
 10
392.66015625
 20
393.4697265625
 30
0.0
 10
373.73046875
 20
378.3896484375
 30
0.0
 10
358.6796875
 20
376.5302734375
 30
0.0
 10
347.7197265625
 20
375.1796875
 30
0.0
 10
338.669921875
 20
379.2900390625
 30
0.0
 10
337.919921875
 20
388.2099609375
 30
0.0
 10
337.2001953125
 20
396.72998046875
 30
0.0
 10
343.9501953125
 20
404.18994140625
 30
0.0
 10
349.599609375
 20
409.6298828125
 30
0.0
 10
355.0302734375
 20
414.85986328125
 30
0.0
 10
359.830078125
 20
418.990234375
 30
0.0
 10
371.66015625
 20
420.66015625
 30
0.0
  0
HATCH
  5
51
330
44
100
AcDbEntity
  8
Layer 1
 62
     7
420
 16777215
100
AcDbHatch
 10
0.0
 20
0.0
 30
0.0
210
0.0
220
0.0
230
1.0
  2
SOLID
 70
     1
 71
     0
 91
        1
 92
        1
 93
        1
 72
     4
 94
        3
 73
     0
 74
     1
 95
       20
 96
       16
 40
0.0
 40
0.0
 40
0.0
 40
0.0
 40
1.0
 40
1.0
 40
1.0
 40
2.0
 40
2.0
 40
2.0
 40
3.0
 40
3.0
 40
3.0
 40
4.0
 40
4.0
 40
4.0
 40
5.0
 40
5.0
 40
5.0
 40
5.0
 10
371.66015625
 20
420.66015625
 10
383.0302734375
 20
422.259765625
 10
393.4599609375
 20
419.56982421875
 10
393.0703125
 20
407.02978515625
 10
392.66015625
 20
393.4697265625
 10
373.73046875
 20
378.3896484375
 10
358.6796875
 20
376.5302734375
 10
347.7197265625
 20
375.1796875
 10
338.669921875
 20
379.2900390625
 10
337.919921875
 20
388.2099609375
 10
337.2001953125
 20
396.72998046875
 10
343.9501953125
 20
404.18994140625
 10
349.599609375
 20
409.6298828125
 10
355.0302734375
 20
414.85986328125
 10
359.830078125
 20
418.990234375
 10
371.66015625
 20
420.66015625
 97
        0
 75
     2
 76
     1
 98
        0
  0
SPLINE
  5
52
330
44
100
AcDbEntity
  8
Layer 1
370
     0
100
AcDbSpline
210
0.0
220
0.0
230
1.0
 70
    11
 71
     3
 72
    11
 73
     7
 74
     0
 42
0.0000000001
 43
0.0000000001
 40
0.0
 40
0.0
 40
0.0
 40
0.0
 40
1.0
 40
1.0
 40
1.0
 40
2.0
 40
2.0
 40
2.0
 40
2.0
 10
371.009765625
 20
345.3896484375
 30
0.0
 10
366.3701171875
 20
324.1103515625
 30
0.0
 10
324.8701171875
 20
311.5498046875
 30
0.0
 10
302.8798828125
 20
327.2197265625
 30
0.0
 10
330.6796875
 20
325.6396484375
 30
0.0
 10
355.01953125
 20
333.0
 30
0.0
 10
371.009765625
 20
345.3896484375
 30
0.0
  0
HATCH
  5
53
330
44
100
AcDbEntity
  8
Layer 1
 62
     7
420
 16777215
100
AcDbHatch
 10
0.0
 20
0.0
 30
0.0
210
0.0
220
0.0
230
1.0
  2
SOLID
 70
     1
 71
     0
 91
        1
 92
        1
 93
        1
 72
     4
 94
        3
 73
     0
 74
     1
 95
       11
 96
        7
 40
0.0
 40
0.0
 40
0.0
 40
0.0
 40
1.0
 40
1.0
 40
1.0
 40
2.0
 40
2.0
 40
2.0
 40
2.0
 10
371.009765625
 20
345.3896484375
 10
366.3701171875
 20
324.1103515625
 10
324.8701171875
 20
311.5498046875
 10
302.8798828125
 20
327.2197265625
 10
330.6796875
 20
325.6396484375
 10
355.01953125
 20
333.0
 10
371.009765625
 20
345.3896484375
 97
        0
 75
     2
 76
     1
 98
        0
  0
SPLINE
  5
54
330
44
100
AcDbEntity
  8
Layer 1
370
     0
100
AcDbSpline
210
0.0
220
0.0
230
1.0
 70
    11
 71
     3
 72
    14
 73
    10
 74
     0
 42
0.0000000001
 43
0.0000000001
 40
0.0
 40
0.0
 40
0.0
 40
0.0
 40
1.0
 40
1.0
 40
1.0
 40
2.0
 40
2.0
 40
2.0
 40
3.0
 40
3.0
 40
3.0
 40
3.0
 10
300.27978515625
 20
401.18994140625
 30
0.0
 10
306.3095703125
 20
395.0
 30
0.0
 10
304.5400390625
 20
381.3603515625
 30
0.0
 10
297.68994140625
 20
377.830078125
 30
0.0
 10
277.9599609375
 20
367.6904296875
 30
0.0
 10
238.22021484375
 20
396.3798828125
 30
0.0
 10
252.91015625
 20
417.41015625
 30
0.0
 10
269.10009765625
 20
412.41015625
 30
0.0
 10
284.0498046875
 20
406.16015625
 30
0.0
 10
300.27978515625
 20
401.18994140625
 30
0.0
  0
HATCH
  5
55
330
44
100
AcDbEntity
  8
Layer 1
 62
     7
420
 16777215
100
AcDbHatch
 10
0.0
 20
0.0
 30
0.0
210
0.0
220
0.0
230
1.0
  2
SOLID
 70
     1
 71
     0
 91
        1
 92
        1
 93
        1
 72
     4
 94
        3
 73
     0
 74
     1
 95
       14
 96
       10
 40
0.0
 40
0.0
 40
0.0
 40
0.0
 40
1.0
 40
1.0
 40
1.0
 40
2.0
 40
2.0
 40
2.0
 40
3.0
 40
3.0
 40
3.0
 40
3.0
 10
300.27978515625
 20
401.18994140625
 10
306.3095703125
 20
395.0
 10
304.5400390625
 20
381.3603515625
 10
297.68994140625
 20
377.830078125
 10
277.9599609375
 20
367.6904296875
 10
238.22021484375
 20
396.3798828125
 10
252.91015625
 20
417.41015625
 10
269.10009765625
 20
412.41015625
 10
284.0498046875
 20
406.16015625
 10
300.27978515625
 20
401.18994140625
 97
        0
 75
     2
 76
     1
 98
        0
  0
ENDBLK
  5
47
330
44
100
AcDbEntity
  8
0
100
AcDbBlockEnd
  0
BLOCK
  5
58
330
56
100
AcDbEntity
  8
0
100
AcDbBlockBegin
  2
block 5
 70
     0
 71
     0
 10
0.0
 20
0.0
 30
0.0
  3
block 5
  1

  0
ENDBLK
  5
59
330
56
100
AcDbEntity
  8
0
100
AcDbBlockEnd
  0
ENDSEC
  0
SECTION
  2
ENTITIES
  0
INSERT
  5
3D
330
1F
100
AcDbEntity
  8
Layer 1
100
AcDbBlockReference
  2
block 2
 10
0.0
 20
0.0
 30
0.0
  0
ENDSEC
  0
SECTION
  2
OBJECTS
  0
DICTIONARY
  5
C
330
0
100
AcDbDictionary
281
     1
  3
ACAD_GROUP
350
D
  3
ACAD_LAYOUT
350
1A
  3
ACAD_MLINESTYLE
350
17
  3
ACAD_PLOTSETTINGS
350
19
  3
ACAD_PLOTSTYLENAME
350
E
  3
ACAD_TABLESTYLE
350
5A
  3
ACAD_VISUALSTYLE
350
2A
  0
DICTIONARY
  5
D
102
{ACAD_REACTORS
330
C
102
}
330
C
100
AcDbDictionary
281
     1
  0
DICTIONARY
  5
1A
102
{ACAD_REACTORS
330
C
102
}
330
C
100
AcDbDictionary
281
     1
  3
Layout1
350
1E
  3
Layout2
350
26
  3
Model
350
22
  0
DICTIONARY
  5
17
102
{ACAD_REACTORS
330
C
102
}
330
C
100
AcDbDictionary
281
     1
  3
Standard
350
18
  0
DICTIONARY
  5
19
102
{ACAD_REACTORS
330
C
102
}
330
C
100
AcDbDictionary
281
     1
  0
ACDBDICTIONARYWDFLT
  5
E
102
{ACAD_REACTORS
330
C
102
}
330
C
100
AcDbDictionary
281
     1
  3
Normal
350
F
100
AcDbDictionaryWithDefault
340
F
  0
DICTIONARY
  5
5A
102
{ACAD_REACTORS
330
C
102
}
330
C
100
AcDbDictionary
281
     1
  0
DICTIONARY
  5
2A
102
{ACAD_REACTORS
330
C
102
}
330
C
100
AcDbDictionary
281
     1
  3
2dWireframe
350
2F
  3
3D Hidden
350
31
  3
3dWireframe
350
30
  3
Basic
350
32
  3
Brighten
350
36
  3
ColorChange
350
3A
  3
Conceptual
350
34
  3
Dim
350
35
  3
Facepattern
350
39
  3
Flat
350
2B
  3
FlatWithEdges
350
2C
  3
Gouraud
350
2D
  3
GouraudWithEdges
350
2E
  3
Linepattern
350
38
  3
Realistic
350
33
  3
Thicken
350
37
  0
LAYOUT
  5
1E
102
{ACAD_REACTORS
330
1A
102
}
330
1A
100
AcDbPlotSettings
  1

  2
none_device
  4

  6

 40
0.0
 41
0.0
 42
0.0
 43
0.0
 44
0.0
 45
0.0
 46
0.0
 47
0.0
 48
0.0
 49
0.0
140
0.0
141
0.0
142
1.0
143
1.0
 70
   688
 72
     0
 73
     0
 74
     5
  7

 75
    16
 76
     0
 77
     2
 78
   300
147
1.0
148
0.0
149
0.0
100
AcDbLayout
  1
Layout1
 70
     1
 71
     1
 10
0.0
 20
0.0
 11
12.0
 21
9.0
 12
0.0
 22
0.0
 32
0.0
 14
1.000000000000000E+20
 24
1.000000000000000E+20
 34
1.000000000000000E+20
 15
-1.000000000000000E+20
 25
-1.000000000000000E+20
 35
-1.000000000000000E+20
146
0.0
 13
0.0
 23
0.0
 33
0.0
 16
1.0
 26
0.0
 36
0.0
 17
0.0
 27
1.0
 37
0.0
 76
     0
330
1B
  0
LAYOUT
  5
26
102
{ACAD_REACTORS
330
1A
102
}
330
1A
100
AcDbPlotSettings
  1

  2
none_device
  4

  6

 40
0.0
 41
0.0
 42
0.0
 43
0.0
 44
0.0
 45
0.0
 46
0.0
 47
0.0
 48
0.0
 49
0.0
140
0.0
141
0.0
142
1.0
143
1.0
 70
   688
 72
     0
 73
     0
 74
     5
  7

 75
    16
 76
     0
 77
     2
 78
   300
147
1.0
148
0.0
149
0.0
100
AcDbLayout
  1
Layout2
 70
     1
 71
     2
 10
0.0
 20
0.0
 11
0.0
 21
0.0
 12
0.0
 22
0.0
 32
0.0
 14
0.0
 24
0.0
 34
0.0
 15
0.0
 25
0.0
 35
0.0
146
0.0
 13
0.0
 23
0.0
 33
0.0
 16
1.0
 26
0.0
 36
0.0
 17
0.0
 27
1.0
 37
0.0
 76
     0
330
23
  0
LAYOUT
  5
22
102
{ACAD_REACTORS
330
1A
102
}
330
1A
100
AcDbPlotSettings
  1

  2
none_device
  4

  6

 40
0.0
 41
0.0
 42
0.0
 43
0.0
 44
0.0
 45
0.0
 46
0.0
 47
0.0
 48
0.0
 49
0.0
140
0.0
141
0.0
142
1.0
143
1.0
 70
  1712
 72
     0
 73
     0
 74
     0
  7

 75
     0
 76
     0
 77
     2
 78
   300
147
1.0
148
0.0
149
0.0
100
AcDbLayout
  1
Model
 70
     1
 71
     0
 10
0.0
 20
0.0
 11
12.0
 21
9.0
 12
0.0
 22
0.0
 32
0.0
 14
1.000000000000000E+20
 24
1.000000000000000E+20
 34
1.000000000000000E+20
 15
-1.000000000000000E+20
 25
-1.000000000000000E+20
 35
-1.000000000000000E+20
146
0.0
 13
0.0
 23
0.0
 33
0.0
 16
1.0
 26
0.0
 36
0.0
 17
0.0
 27
1.0
 37
0.0
 76
     0
330
1F
331
29
  0
MLINESTYLE
  5
18
102
{ACAD_REACTORS
330
17
102
}
330
17
100
AcDbMlineStyle
  2
Standard
 70
     0
  3

 62
   256
 51
90.0
 52
90.0
 71
     2
 49
0.5
 62
   256
  6
BYLAYER
 49
-0.5
 62
   256
  6
BYLAYER
  0
ACDBPLACEHOLDER
  5
F
102
{ACAD_REACTORS
330
E
102
}
330
E
  0
VISUALSTYLE
  5
2F
102
{ACAD_REACTORS
330
2A
102
}
330
2A
100
AcDbVisualStyle
  2
2dWireframe
 70
     4
 71
     0
 72
     2
 73
     0
 90
        0
 40
-0.6
 41
-30.0
 62
     5
 63
     7
421
 16777215
 74
     1
 91
        4
 64
     7
 65
   257
 75
     1
175
     1
 42
1.0
 92
        0
 66
   257
 43
1.0
 76
     1
 77
     6
 78
     2
 67
     7
 79
     5
170
     0
171
     0
290
     0
174
     0
 93
        1
 44
0.0
173
     0
291
     0
 45
0.0
1001
ACAD
1000
AcDbSavedByObjectVersion
1070
     0
  0
VISUALSTYLE
  5
31
102
{ACAD_REACTORS
330
2A
102
}
330
2A
100
AcDbVisualStyle
  2
3D Hidden
 70
     6
 71
     1
 72
     2
 73
     2
 90
        0
 40
-0.6
 41
-30.0
 62
     5
 63
     7
421
 16777215
 74
     2
 91
        2
 64
     7
 65
   257
 75
     2
175
     1
 42
40.0
 92
        0
 66
   257
 43
1.0
 76
     1
 77
     6
 78
     2
 67
     7
 79
     3
170
     0
171
     0
290
     0
174
     0
 93
        1
 44
0.0
173
     0
291
     0
 45
0.0
1001
ACAD
1000
AcDbSavedByObjectVersion
1070
     0
  0
VISUALSTYLE
  5
30
102
{ACAD_REACTORS
330
2A
102
}
330
2A
100
AcDbVisualStyle
  2
3dWireframe
 70
     5
 71
     0
 72
     2
 73
     0
 90
        0
 40
-0.6
 41
-30.0
 62
     5
 63
     7
421
 16777215
 74
     1
 91
        4
 64
     7
 65
   257
 75
     1
175
     1
 42
1.0
 92
        0
 66
   257
 43
1.0
 76
     1
 77
     6
 78
     2
 67
     7
 79
     5
170
     0
171
     0
290
     0
174
     0
 93
        1
 44
0.0
173
     0
291
     0
 45
0.0
1001
ACAD
1000
AcDbSavedByObjectVersion
1070
     0
  0
VISUALSTYLE
  5
32
102
{ACAD_REACTORS
330
2A
102
}
330
2A
100
AcDbVisualStyle
  2
Basic
 70
     7
 71
     1
 72
     0
 73
     1
 90
        0
 40
-0.6
 41
-30.0
 62
     5
 63
     7
421
 16777215
 74
     0
 91
        4
 64
     7
 65
   257
 75
     1
175
     1
 42
1.0
 92
        8
 66
     7
 43
1.0
 76
     1
 77
     6
 78
     2
 67
     7
 79
     5
170
     0
171
     0
290
     0
174
     0
 93
        1
 44
0.0
173
     0
291
     1
 45
0.0
1001
ACAD
1000
AcDbSavedByObjectVersion
1070
     0
  0
VISUALSTYLE
  5
36
102
{ACAD_REACTORS
330
2A
102
}
330
2A
100
AcDbVisualStyle
  2
Brighten
 70
    12
 71
     2
 72
     2
 73
     0
 90
        0
 40
-0.6
 41
-30.0
 62
     5
 63
     7
421
 16777215
 74
     1
 91
        4
 64
     7
 65
   257
 75
     1
175
     1
 42
1.0
 92
        8
 66
     7
 43
1.0
 76
     1
 77
     6
 78
     2
 67
     7
 79
     5
170
     0
171
     0
290
     0
174
     0
 93
        1
 44
50.0
173
     0
291
     1
 45
0.0
1001
ACAD
1000
AcDbSavedByObjectVersion
1070
     0
  0
VISUALSTYLE
  5
3A
102
{ACAD_REACTORS
330
2A
102
}
330
2A
100
AcDbVisualStyle
  2
ColorChange
 70
    16
 71
     2
 72
     2
 73
     3
 90
        0
 40
-0.6
 41
-30.0
 62
     5
 63
     8
421
  8421504
 74
     1
 91
        4
 64
     7
 65
   257
 75
     1
175
     1
 42
1.0
 92
        8
 66
     8
424
  8421504
 43
1.0
 76
     1
 77
     6
 78
     2
 67
     7
 79
     5
170
     0
171
     0
290
     0
174
     0
 93
        1
 44
0.0
173
     0
291
     1
 45
0.0
1001
ACAD
1000
AcDbSavedByObjectVersion
1070
     0
  0
VISUALSTYLE
  5
34
102
{ACAD_REACTORS
330
2A
102
}
330
2A
100
AcDbVisualStyle
  2
Conceptual
 70
     9
 71
     3
 72
     2
 73
     0
 90
        0
 40
-0.6
 41
-30.0
 62
     5
 63
     7
421
 16777215
 74
     2
 91
        2
 64
     7
 65
   257
 75
     1
175
     1
 42
40.0
 92
        8
 66
     7
 43
1.0
 76
     1
 77
     6
 78
     2
 67
     7
 79
     3
170
     0
171
     0
290
     0
174
     0
 93
        1
 44
0.0
173
     0
291
     0
 45
0.0
1001
ACAD
1000
AcDbSavedByObjectVersion
1070
     0
  0
VISUALSTYLE
  5
35
102
{ACAD_REACTORS
330
2A
102
}
330
2A
100
AcDbVisualStyle
  2
Dim
 70
    11
 71
     2
 72
     2
 73
     0
 90
        0
 40
-0.6
 41
-30.0
 62
     5
 63
     7
421
 16777215
 74
     1
 91
        4
 64
     7
 65
   257
 75
     1
175
     1
 42
1.0
 92
        8
 66
     7
 43
1.0
 76
     1
 77
     6
 78
     2
 67
     7
 79
     5
170
     0
171
     0
290
     0
174
     0
 93
        1
 44
-50.0
173
     0
291
     1
 45
0.0
1001
ACAD
1000
AcDbSavedByObjectVersion
1070
     0
  0
VISUALSTYLE
  5
39
102
{ACAD_REACTORS
330
2A
102
}
330
2A
100
AcDbVisualStyle
  2
Facepattern
 70
    15
 71
     2
 72
     2
 73
     0
 90
        0
 40
-0.6
 41
-30.0
 62
     5
 63
     7
421
 16777215
 74
     1
 91
        4
 64
     7
 65
   257
 75
     1
175
     1
 42
1.0
 92
        8
 66
     7
 43
1.0
 76
     1
 77
     6
 78
     2
 67
     7
 79
     5
170
     0
171
     0
290
     0
174
     0
 93
        1
 44
0.0
173
     0
291
     1
 45
0.0
1001
ACAD
1000
AcDbSavedByObjectVersion
1070
     0
  0
VISUALSTYLE
  5
2B
102
{ACAD_REACTORS
330
2A
102
}
330
2A
100
AcDbVisualStyle
  2
Flat
 70
     0
 71
     2
 72
     1
 73
     1
 90
        2
 40
-0.6
 41
30.0
 62
     5
 63
     7
421
 16777215
 74
     0
 91
        4
 64
     7
 65
   257
 75
     1
175
     1
 42
1.0
 92
        8
 66
     7
 43
1.0
 76
     1
 77
     6
 78
     2
 67
     7
 79
     5
170
     0
171
     0
290
     0
174
     0
 93
       13
 44
0.0
173
     0
291
     1
 45
0.0
1001
ACAD
1000
AcDbSavedByObjectVersion
1070
     0
  0
VISUALSTYLE
  5
2C
102
{ACAD_REACTORS
330
2A
102
}
330
2A
100
AcDbVisualStyle
  2
FlatWithEdges
 70
     1
 71
     2
 72
     1
 73
     1
 90
        2
 40
-0.6
 41
30.0
 62
     5
 63
     7
421
 16777215
 74
     1
 91
        4
 64
     7
 65
   257
 75
     1
175
     1
 42
1.0
 92
        0
 66
   257
 43
1.0
 76
     1
 77
     6
 78
     2
 67
     7
 79
     5
170
     0
171
     0
290
     0
174
     0
 93
       13
 44
0.0
173
     0
291
     1
 45
0.0
1001
ACAD
1000
AcDbSavedByObjectVersion
1070
     0
  0
VISUALSTYLE
  5
2D
102
{ACAD_REACTORS
330
2A
102
}
330
2A
100
AcDbVisualStyle
  2
Gouraud
 70
     2
 71
     2
 72
     2
 73
     1
 90
        2
 40
-0.6
 41
30.0
 62
     5
 63
     7
421
 16777215
 74
     0
 91
        4
 64
     7
 65
   257
 75
     1
175
     1
 42
1.0
 92
        0
 66
     7
 43
1.0
 76
     1
 77
     6
 78
     2
 67
     7
 79
     5
170
     0
171
     0
290
     0
174
     0
 93
       13
 44
0.0
173
     0
291
     1
 45
0.0
1001
ACAD
1000
AcDbSavedByObjectVersion
1070
     0
  0
VISUALSTYLE
  5
2E
102
{ACAD_REACTORS
330
2A
102
}
330
2A
100
AcDbVisualStyle
  2
GouraudWithEdges
 70
     3
 71
     2
 72
     2
 73
     1
 90
        2
 40
-0.6
 41
30.0
 62
     5
 63
     7
421
 16777215
 74
     1
 91
        4
 64
     7
 65
   257
 75
     1
175
     1
 42
1.0
 92
        0
 66
   257
 43
1.0
 76
     1
 77
     6
 78
     2
 67
     7
 79
     5
170
     0
171
     0
290
     0
174
     0
 93
       13
 44
0.0
173
     0
291
     1
 45
0.0
1001
ACAD
1000
AcDbSavedByObjectVersion
1070
     0
  0
VISUALSTYLE
  5
38
102
{ACAD_REACTORS
330
2A
102
}
330
2A
100
AcDbVisualStyle
  2
Linepattern
 70
    14
 71
     2
 72
     2
 73
     0
 90
        0
 40
-0.6
 41
-30.0
 62
     5
 63
     7
421
 16777215
 74
     1
 91
        4
 64
     7
 65
   257
 75
     7
175
     7
 42
1.0
 92
        8
 66
     7
 43
1.0
 76
     1
 77
     6
 78
     2
 67
     7
 79
     5
170
     0
171
     0
290
     0
174
     0
 93
        1
 44
0.0
173
     0
291
     1
 45
0.0
1001
ACAD
1000
AcDbSavedByObjectVersion
1070
     0
  0
VISUALSTYLE
  5
33
102
{ACAD_REACTORS
330
2A
102
}
330
2A
100
AcDbVisualStyle
  2
Realistic
 70
     8
 71
     2
 72
     2
 73
     0
 90
        0
 40
-0.6
 41
-30.0
 62
     5
 63
     7
421
 16777215
 74
     1
 91
        0
 64
     7
 65
   257
 75
     1
175
     1
 42
1.0
 92
        8
 66
     8
424
  7895160
 43
1.0
 76
     1
 77
     6
 78
     2
 67
     7
 79
     5
170
     0
171
     0
290
     0
174
     0
 93
       13
 44
0.0
173
     0
291
     0
 45
0.0
1001
ACAD
1000
AcDbSavedByObjectVersion
1070
     0
  0
VISUALSTYLE
  5
37
102
{ACAD_REACTORS
330
2A
102
}
330
2A
100
AcDbVisualStyle
  2
Thicken
 70
    13
 71
     2
 72
     2
 73
     0
 90
        0
 40
-0.6
 41
-30.0
 62
     5
 63
     7
421
 16777215
 74
     1
 91
        4
 64
     7
 65
   257
 75
     1
175
     1
 42
1.0
 92
       12
 66
     7
 43
1.0
 76
     1
 77
     6
 78
     2
 67
     7
 79
     5
170
     0
171
     0
290
     0
174
     0
 93
        1
 44
0.0
173
     0
291
     1
 45
0.0
1001
ACAD
1000
AcDbSavedByObjectVersion
1070
     0
  0
ENDSEC
  0
EOF
