solid T1 Winner circle plaque
facet normal 0.0 0.0 -1.0
outer loop
vertex -48.2962913144534 12.9409522551261 0.0
vertex -48.2962913144534 -12.940952255126 0.0
vertex -50.0 6.12323399573677e-15 0.0
endloop
endfacet
facet normal 0.0 0.0 -1.0
outer loop
vertex -48.2962913144534 -12.940952255126 0.0
vertex -48.2962913144534 12.9409522551261 0.0
vertex -43.3012701892219 -25.0 0.0
endloop
endfacet
facet normal 0.0 0.0 -1.0
outer loop
vertex -43.3012701892219 -25.0 0.0
vertex -48.2962913144534 12.9409522551261 0.0
vertex -43.3012701892219 25.0 0.0
endloop
endfacet
facet normal 0.0 0.0 -1.0
outer loop
vertex -43.3012701892219 -25.0 0.0
vertex -43.3012701892219 25.0 0.0
vertex -35.3553390593274 -35.3553390593274 0.0
endloop
endfacet
facet normal 0.0 0.0 -1.0
outer loop
vertex -35.3553390593274 -35.3553390593274 0.0
vertex -43.3012701892219 25.0 0.0
vertex -35.3553390593274 35.3553390593274 0.0
endloop
endfacet
facet normal 0.0 0.0 -1.0
outer loop
vertex -35.3553390593274 -35.3553390593274 0.0
vertex -35.3553390593274 35.3553390593274 0.0
vertex -25.0 -43.3012701892219 0.0
endloop
endfacet
facet normal 0.0 0.0 -1.0
outer loop
vertex -25.0 -43.3012701892219 0.0
vertex -35.3553390593274 35.3553390593274 0.0
vertex -25.0 43.3012701892219 0.0
endloop
endfacet
facet normal 0.0 0.0 -1.0
outer loop
vertex -25.0 -43.3012701892219 0.0
vertex -25.0 43.3012701892219 0.0
vertex -12.9409522551261 -48.2962913144534 0.0
endloop
endfacet
facet normal 0.0 0.0 -1.0
outer loop
vertex -12.9409522551261 -48.2962913144534 0.0
vertex -25.0 43.3012701892219 0.0
vertex -12.940952255126 48.2962913144534 0.0
endloop
endfacet
facet normal 0.0 0.0 -1.0
outer loop
vertex -12.9409522551261 -48.2962913144534 0.0
vertex -12.940952255126 48.2962913144534 0.0
vertex -9.18485099360515e-15 -50.0 0.0
endloop
endfacet
facet normal 0.0 0.0 -1.0
outer loop
vertex -9.18485099360515e-15 -50.0 0.0
vertex -12.940952255126 48.2962913144534 0.0
vertex 3.06161699786838e-15 50.0 0.0
endloop
endfacet
facet normal 0.0 0.0 -1.0
outer loop
vertex -9.18485099360515e-15 -50.0 0.0
vertex 3.06161699786838e-15 50.0 0.0
vertex 12.940952255126 -48.2962913144534 0.0
endloop
endfacet
facet normal 0.0 0.0 -1.0
outer loop
vertex 12.940952255126 -48.2962913144534 0.0
vertex 3.06161699786838e-15 50.0 0.0
vertex 12.940952255126 48.2962913144534 0.0
endloop
endfacet
facet normal 0.0 0.0 -1.0
outer loop
vertex 12.940952255126 -48.2962913144534 0.0
vertex 12.940952255126 48.2962913144534 0.0
vertex 25.0 -43.301270189222 0.0
endloop
endfacet
facet normal 0.0 0.0 -1.0
outer loop
vertex 25.0 -43.301270189222 0.0
vertex 12.940952255126 48.2962913144534 0.0
vertex 25.0 43.3012701892219 0.0
endloop
endfacet
facet normal 0.0 0.0 -1.0
outer loop
vertex 25.0 -43.301270189222 0.0
vertex 25.0 43.3012701892219 0.0
vertex 35.3553390593274 -35.3553390593274 0.0
endloop
endfacet
facet normal 0.0 0.0 -1.0
outer loop
vertex 35.3553390593274 -35.3553390593274 0.0
vertex 25.0 43.3012701892219 0.0
vertex 35.3553390593274 35.3553390593274 0.0
endloop
endfacet
facet normal 0.0 0.0 -1.0
outer loop
vertex 35.3553390593274 -35.3553390593274 0.0
vertex 35.3553390593274 35.3553390593274 0.0
vertex 43.3012701892219 -25.0 0.0
endloop
endfacet
facet normal 0.0 0.0 -1.0
outer loop
vertex 43.3012701892219 -25.0 0.0
vertex 35.3553390593274 35.3553390593274 0.0
vertex 43.3012701892219 25.0 0.0
endloop
endfacet
facet normal 0.0 0.0 -1.0
outer loop
vertex 43.3012701892219 -25.0 0.0
vertex 43.3012701892219 25.0 0.0
vertex 48.2962913144534 -12.9409522551261 0.0
endloop
endfacet
facet normal 0.0 0.0 -1.0
outer loop
vertex 48.2962913144534 -12.9409522551261 0.0
vertex 43.3012701892219 25.0 0.0
vertex 48.2962913144534 12.940952255126 0.0
endloop
endfacet
facet normal 0.0 0.0 -1.0
outer loop
vertex 48.2962913144534 -12.9409522551261 0.0
vertex 48.2962913144534 12.940952255126 0.0
vertex 50.0 0.0 0.0
endloop
endfacet
facet normal 0.0 0.0 1.0
outer loop
vertex -48.2962913144534 -12.940952255126 1.0
vertex -48.2962913144534 12.9409522551261 1.0
vertex -50.0 6.12323399573677e-15 1.0
endloop
endfacet
facet normal 0.0 0.0 1.0
outer loop
vertex -48.2962913144534 12.9409522551261 1.0
vertex -48.2962913144534 -12.940952255126 1.0
vertex -43.3012701892219 -25.0 1.0
endloop
endfacet
facet normal 0.0 0.0 1.0
outer loop
vertex -48.2962913144534 12.9409522551261 1.0
vertex -43.3012701892219 -25.0 1.0
vertex -43.3012701892219 25.0 1.0
endloop
endfacet
facet normal 0.0 0.0 1.0
outer loop
vertex -43.3012701892219 25.0 1.0
vertex -43.3012701892219 -25.0 1.0
vertex -35.3553390593274 -35.3553390593274 1.0
endloop
endfacet
facet normal 0.0 0.0 1.0
outer loop
vertex -43.3012701892219 25.0 1.0
vertex -35.3553390593274 -35.3553390593274 1.0
vertex -35.3553390593274 35.3553390593274 1.0
endloop
endfacet
facet normal 0.0 0.0 1.0
outer loop
vertex -35.3553390593274 35.3553390593274 1.0
vertex -35.3553390593274 -35.3553390593274 1.0
vertex -25.0 -43.3012701892219 1.0
endloop
endfacet
facet normal 0.0 0.0 1.0
outer loop
vertex -35.3553390593274 35.3553390593274 1.0
vertex -25.0 -43.3012701892219 1.0
vertex -25.0 43.3012701892219 1.0
endloop
endfacet
facet normal 0.0 0.0 1.0
outer loop
vertex -25.0 43.3012701892219 1.0
vertex -25.0 -43.3012701892219 1.0
vertex -12.9409522551261 -48.2962913144534 1.0
endloop
endfacet
facet normal 0.0 0.0 1.0
outer loop
vertex -25.0 43.3012701892219 1.0
vertex -12.9409522551261 -48.2962913144534 1.0
vertex -12.940952255126 48.2962913144534 1.0
endloop
endfacet
facet normal 0.0 0.0 1.0
outer loop
vertex -12.940952255126 48.2962913144534 1.0
vertex -12.9409522551261 -48.2962913144534 1.0
vertex -9.18485099360515e-15 -50.0 1.0
endloop
endfacet
facet normal 0.0 0.0 1.0
outer loop
vertex -12.940952255126 48.2962913144534 1.0
vertex -9.18485099360515e-15 -50.0 1.0
vertex 3.06161699786838e-15 50.0 1.0
endloop
endfacet
facet normal 0.0 0.0 1.0
outer loop
vertex 3.06161699786838e-15 50.0 1.0
vertex -9.18485099360515e-15 -50.0 1.0
vertex 12.940952255126 -48.2962913144534 1.0
endloop
endfacet
facet normal 0.0 0.0 1.0
outer loop
vertex 3.06161699786838e-15 50.0 1.0
vertex 12.940952255126 -48.2962913144534 1.0
vertex 12.940952255126 48.2962913144534 1.0
endloop
endfacet
facet normal 0.0 0.0 1.0
outer loop
vertex 12.940952255126 48.2962913144534 1.0
vertex 12.940952255126 -48.2962913144534 1.0
vertex 25.0 -43.301270189222 1.0
endloop
endfacet
facet normal 0.0 0.0 1.0
outer loop
vertex 12.940952255126 48.2962913144534 1.0
vertex 25.0 -43.301270189222 1.0
vertex 25.0 43.3012701892219 1.0
endloop
endfacet
facet normal 0.0 0.0 1.0
outer loop
vertex 25.0 43.3012701892219 1.0
vertex 25.0 -43.301270189222 1.0
vertex 35.3553390593274 -35.3553390593274 1.0
endloop
endfacet
facet normal 0.0 0.0 1.0
outer loop
vertex 25.0 43.3012701892219 1.0
vertex 35.3553390593274 -35.3553390593274 1.0
vertex 35.3553390593274 35.3553390593274 1.0
endloop
endfacet
facet normal 0.0 0.0 1.0
outer loop
vertex 35.3553390593274 35.3553390593274 1.0
vertex 35.3553390593274 -35.3553390593274 1.0
vertex 43.3012701892219 -25.0 1.0
endloop
endfacet
facet normal 0.0 0.0 1.0
outer loop
vertex 35.3553390593274 35.3553390593274 1.0
vertex 43.3012701892219 -25.0 1.0
vertex 43.3012701892219 25.0 1.0
endloop
endfacet
facet normal 0.0 0.0 1.0
outer loop
vertex 43.3012701892219 25.0 1.0
vertex 43.3012701892219 -25.0 1.0
vertex 48.2962913144534 -12.9409522551261 1.0
endloop
endfacet
facet normal 0.0 0.0 1.0
outer loop
vertex 43.3012701892219 25.0 1.0
vertex 48.2962913144534 -12.9409522551261 1.0
vertex 48.2962913144534 12.940952255126 1.0
endloop
endfacet
facet normal 0.0 0.0 1.0
outer loop
vertex 48.2962913144534 12.940952255126 1.0
vertex 48.2962913144534 -12.9409522551261 1.0
vertex 50.0 0.0 1.0
endloop
endfacet
facet normal -0.793353340291235 0.608761429008721 0.0
outer loop
vertex -35.3553390593274 35.3553390593274 1.0
vertex -43.3012701892219 25.0 0.0
vertex -43.3012701892219 25.0 1.0
endloop
endfacet
facet normal -0.793353340291235 0.608761429008721 0.0
outer loop
vertex -43.3012701892219 25.0 0.0
vertex -35.3553390593274 35.3553390593274 1.0
vertex -35.3553390593274 35.3553390593274 0.0
endloop
endfacet
facet normal -0.608761429008721 0.793353340291235 -0.0
outer loop
vertex -35.3553390593274 35.3553390593274 1.0
vertex -25.0 43.3012701892219 0.0
vertex -35.3553390593274 35.3553390593274 0.0
endloop
endfacet
facet normal -0.608761429008721 0.793353340291235 -0.0
outer loop
vertex -25.0 43.3012701892219 0.0
vertex -35.3553390593274 35.3553390593274 1.0
vertex -25.0 43.3012701892219 1.0
endloop
endfacet
facet normal -0.382683432365089 0.923879532511287 -0.0
outer loop
vertex -25.0 43.3012701892219 1.0
vertex -12.940952255126 48.2962913144534 0.0
vertex -25.0 43.3012701892219 0.0
endloop
endfacet
facet normal -0.382683432365089 0.923879532511287 -0.0
outer loop
vertex -12.940952255126 48.2962913144534 0.0
vertex -25.0 43.3012701892219 1.0
vertex -12.940952255126 48.2962913144534 1.0
endloop
endfacet
facet normal -0.130526192220051 0.99144486137381 -0.0
outer loop
vertex -12.940952255126 48.2962913144534 1.0
vertex 3.06161699786838e-15 50.0 0.0
vertex -12.940952255126 48.2962913144534 0.0
endloop
endfacet
facet normal -0.130526192220051 0.99144486137381 -0.0
outer loop
vertex 3.06161699786838e-15 50.0 0.0
vertex -12.940952255126 48.2962913144534 1.0
vertex 3.06161699786838e-15 50.0 1.0
endloop
endfacet
facet normal 0.130526192220052 0.99144486137381 -0.0
outer loop
vertex 3.06161699786838e-15 50.0 1.0
vertex 12.940952255126 48.2962913144534 0.0
vertex 3.06161699786838e-15 50.0 0.0
endloop
endfacet
facet normal 0.130526192220052 0.99144486137381 -0.0
outer loop
vertex 12.940952255126 48.2962913144534 0.0
vertex 3.06161699786838e-15 50.0 1.0
vertex 12.940952255126 48.2962913144534 1.0
endloop
endfacet
facet normal 0.38268343236509 0.923879532511287 -0.0
outer loop
vertex 12.940952255126 48.2962913144534 1.0
vertex 25.0 43.3012701892219 0.0
vertex 12.940952255126 48.2962913144534 0.0
endloop
endfacet
facet normal 0.38268343236509 0.923879532511287 -0.0
outer loop
vertex 25.0 43.3012701892219 0.0
vertex 12.940952255126 48.2962913144534 1.0
vertex 25.0 43.3012701892219 1.0
endloop
endfacet
facet normal 0.608761429008721 0.793353340291235 -0.0
outer loop
vertex 25.0 43.3012701892219 1.0
vertex 35.3553390593274 35.3553390593274 0.0
vertex 25.0 43.3012701892219 0.0
endloop
endfacet
facet normal 0.608761429008721 0.793353340291235 -0.0
outer loop
vertex 35.3553390593274 35.3553390593274 0.0
vertex 25.0 43.3012701892219 1.0
vertex 35.3553390593274 35.3553390593274 1.0
endloop
endfacet
facet normal 0.793353340291235 0.608761429008721 -0.0
outer loop
vertex 35.3553390593274 35.3553390593274 0.0
vertex 43.3012701892219 25.0 1.0
vertex 43.3012701892219 25.0 0.0
endloop
endfacet
facet normal 0.793353340291235 0.608761429008721 -0.0
outer loop
vertex 43.3012701892219 25.0 1.0
vertex 35.3553390593274 35.3553390593274 0.0
vertex 35.3553390593274 35.3553390593274 1.0
endloop
endfacet
facet normal 0.923879532511287 0.38268343236509 -0.0
outer loop
vertex 43.3012701892219 25.0 0.0
vertex 48.2962913144534 12.940952255126 1.0
vertex 48.2962913144534 12.940952255126 0.0
endloop
endfacet
facet normal 0.923879532511287 0.38268343236509 -0.0
outer loop
vertex 48.2962913144534 12.940952255126 1.0
vertex 43.3012701892219 25.0 0.0
vertex 43.3012701892219 25.0 1.0
endloop
endfacet
facet normal 0.99144486137381 0.130526192220051 -0.0
outer loop
vertex 48.2962913144534 12.940952255126 0.0
vertex 50.0 0.0 1.0
vertex 50.0 0.0 0.0
endloop
endfacet
facet normal 0.99144486137381 0.130526192220051 -0.0
outer loop
vertex 50.0 0.0 1.0
vertex 48.2962913144534 12.940952255126 0.0
vertex 48.2962913144534 12.940952255126 1.0
endloop
endfacet
facet normal 0.99144486137381 -0.130526192220052 -0.0
outer loop
vertex 50.0 0.0 0.0
vertex 48.2962913144534 -12.9409522551261 1.0
vertex 48.2962913144534 -12.9409522551261 0.0
endloop
endfacet
facet normal 0.99144486137381 -0.130526192220052 -0.0
outer loop
vertex 48.2962913144534 -12.9409522551261 1.0
vertex 50.0 0.0 0.0
vertex 50.0 0.0 1.0
endloop
endfacet
facet normal 0.923879532511287 -0.382683432365091 -0.0
outer loop
vertex 48.2962913144534 -12.9409522551261 0.0
vertex 43.3012701892219 -25.0 1.0
vertex 43.3012701892219 -25.0 0.0
endloop
endfacet
facet normal 0.923879532511287 -0.382683432365091 -0.0
outer loop
vertex 43.3012701892219 -25.0 1.0
vertex 48.2962913144534 -12.9409522551261 0.0
vertex 48.2962913144534 -12.9409522551261 1.0
endloop
endfacet
facet normal 0.793353340291235 -0.608761429008721 -0.0
outer loop
vertex 43.3012701892219 -25.0 0.0
vertex 35.3553390593274 -35.3553390593274 1.0
vertex 35.3553390593274 -35.3553390593274 0.0
endloop
endfacet
facet normal 0.793353340291235 -0.608761429008721 -0.0
outer loop
vertex 35.3553390593274 -35.3553390593274 1.0
vertex 43.3012701892219 -25.0 0.0
vertex 43.3012701892219 -25.0 1.0
endloop
endfacet
facet normal 0.60876142900872 -0.793353340291236 0.0
outer loop
vertex 35.3553390593274 -35.3553390593274 1.0
vertex 25.0 -43.301270189222 0.0
vertex 35.3553390593274 -35.3553390593274 0.0
endloop
endfacet
facet normal 0.60876142900872 -0.793353340291236 0.0
outer loop
vertex 25.0 -43.301270189222 0.0
vertex 35.3553390593274 -35.3553390593274 1.0
vertex 25.0 -43.301270189222 1.0
endloop
endfacet
facet normal 0.382683432365089 -0.923879532511287 0.0
outer loop
vertex 25.0 -43.301270189222 1.0
vertex 12.940952255126 -48.2962913144534 0.0
vertex 25.0 -43.301270189222 0.0
endloop
endfacet
facet normal 0.382683432365089 -0.923879532511287 0.0
outer loop
vertex 12.940952255126 -48.2962913144534 0.0
vertex 25.0 -43.301270189222 1.0
vertex 12.940952255126 -48.2962913144534 1.0
endloop
endfacet
facet normal 0.130526192220051 -0.99144486137381 0.0
outer loop
vertex 12.940952255126 -48.2962913144534 1.0
vertex -9.18485099360515e-15 -50.0 0.0
vertex 12.940952255126 -48.2962913144534 0.0
endloop
endfacet
facet normal 0.130526192220051 -0.99144486137381 0.0
outer loop
vertex -9.18485099360515e-15 -50.0 0.0
vertex 12.940952255126 -48.2962913144534 1.0
vertex -9.18485099360515e-15 -50.0 1.0
endloop
endfacet
facet normal -0.130526192220052 -0.99144486137381 0.0
outer loop
vertex -9.18485099360515e-15 -50.0 1.0
vertex -12.9409522551261 -48.2962913144534 0.0
vertex -9.18485099360515e-15 -50.0 0.0
endloop
endfacet
facet normal -0.130526192220052 -0.99144486137381 0.0
outer loop
vertex -12.9409522551261 -48.2962913144534 0.0
vertex -9.18485099360515e-15 -50.0 1.0
vertex -12.9409522551261 -48.2962913144534 1.0
endloop
endfacet
facet normal -0.38268343236509 -0.923879532511287 0.0
outer loop
vertex -12.9409522551261 -48.2962913144534 1.0
vertex -25.0 -43.3012701892219 0.0
vertex -12.9409522551261 -48.2962913144534 0.0
endloop
endfacet
facet normal -0.38268343236509 -0.923879532511287 0.0
outer loop
vertex -25.0 -43.3012701892219 0.0
vertex -12.9409522551261 -48.2962913144534 1.0
vertex -25.0 -43.3012701892219 1.0
endloop
endfacet
facet normal -0.608761429008721 -0.793353340291235 0.0
outer loop
vertex -25.0 -43.3012701892219 1.0
vertex -35.3553390593274 -35.3553390593274 0.0
vertex -25.0 -43.3012701892219 0.0
endloop
endfacet
facet normal -0.608761429008721 -0.793353340291235 0.0
outer loop
vertex -35.3553390593274 -35.3553390593274 0.0
vertex -25.0 -43.3012701892219 1.0
vertex -35.3553390593274 -35.3553390593274 1.0
endloop
endfacet
facet normal -0.793353340291235 -0.60876142900872 0.0
outer loop
vertex -43.3012701892219 -25.0 1.0
vertex -35.3553390593274 -35.3553390593274 0.0
vertex -35.3553390593274 -35.3553390593274 1.0
endloop
endfacet
facet normal -0.793353340291235 -0.60876142900872 0.0
outer loop
vertex -35.3553390593274 -35.3553390593274 0.0
vertex -43.3012701892219 -25.0 1.0
vertex -43.3012701892219 -25.0 0.0
endloop
endfacet
facet normal -0.923879532511287 -0.382683432365089 0.0
outer loop
vertex -48.2962913144534 -12.940952255126 1.0
vertex -43.3012701892219 -25.0 0.0
vertex -43.3012701892219 -25.0 1.0
endloop
endfacet
facet normal -0.923879532511287 -0.382683432365089 0.0
outer loop
vertex -43.3012701892219 -25.0 0.0
vertex -48.2962913144534 -12.940952255126 1.0
vertex -48.2962913144534 -12.940952255126 0.0
endloop
endfacet
facet normal -0.99144486137381 -0.130526192220051 0.0
outer loop
vertex -50.0 6.12323399573677e-15 1.0
vertex -48.2962913144534 -12.940952255126 0.0
vertex -48.2962913144534 -12.940952255126 1.0
endloop
endfacet
facet normal -0.99144486137381 -0.130526192220051 0.0
outer loop
vertex -48.2962913144534 -12.940952255126 0.0
vertex -50.0 6.12323399573677e-15 1.0
vertex -50.0 6.12323399573677e-15 0.0
endloop
endfacet
facet normal -0.99144486137381 0.130526192220052 0.0
outer loop
vertex -48.2962913144534 12.9409522551261 1.0
vertex -50.0 6.12323399573677e-15 0.0
vertex -50.0 6.12323399573677e-15 1.0
endloop
endfacet
facet normal -0.99144486137381 0.130526192220052 0.0
outer loop
vertex -50.0 6.12323399573677e-15 0.0
vertex -48.2962913144534 12.9409522551261 1.0
vertex -48.2962913144534 12.9409522551261 0.0
endloop
endfacet
facet normal -0.923879532511287 0.38268343236509 0.0
outer loop
vertex -43.3012701892219 25.0 1.0
vertex -48.2962913144534 12.9409522551261 0.0
vertex -48.2962913144534 12.9409522551261 1.0
endloop
endfacet
facet normal -0.923879532511287 0.38268343236509 0.0
outer loop
vertex -48.2962913144534 12.9409522551261 0.0
vertex -43.3012701892219 25.0 1.0
vertex -43.3012701892219 25.0 0.0
endloop
endfacet
facet normal -0.25881904510252 0.965925826289068 0.0
outer loop
vertex 12.940952255126 -48.2962913144534 1.5
vertex 25.0 -43.301270189222 1.0
vertex 12.940952255126 -48.2962913144534 1.0
endloop
endfacet
facet normal -0.499999999999999 0.866025403784439 0.0
outer loop
vertex 25.0 -43.301270189222 1.0
vertex 12.940952255126 -48.2962913144534 1.5
vertex 25.0 -43.301270189222 1.5
endloop
endfacet
facet normal 0.182224807810691 -0.680072241148974 0.710137920573861
outer loop
vertex 13.0714784473461 -48.7834216955372 1.0
vertex 25.0 -43.301270189222 1.5
vertex 12.940952255126 -48.2962913144534 1.5
endloop
endfacet
facet normal 0.352031296109817 -0.609736090716529 0.710137920573861
outer loop
vertex 25.0 -43.301270189222 1.5
vertex 13.0714784473461 -48.7834216955372 1.0
vertex 25.252157240145 -43.7380193406495 1.0
endloop
endfacet
facet normal -0.499999999999999 0.866025403784439 0.0
outer loop
vertex 25.0 -43.301270189222 1.5
vertex 35.3553390593274 -35.3553390593274 1.0
vertex 25.0 -43.301270189222 1.0
endloop
endfacet
facet normal -0.707106781186547 0.707106781186548 0.0
outer loop
vertex 35.3553390593274 -35.3553390593274 1.0
vertex 25.0 -43.301270189222 1.5
vertex 35.3553390593274 -35.3553390593274 1.5
endloop
endfacet
facet normal 0.352031296109817 -0.609736090716529 0.710137920573861
outer loop
vertex 25.252157240145 -43.7380193406495 1.0
vertex 35.3553390593274 -35.3553390593274 1.5
vertex 25.0 -43.301270189222 1.5
endloop
endfacet
facet normal 0.497847433338283 -0.497847433338283 0.710137920573861
outer loop
vertex 35.3553390593274 -35.3553390593274 1.5
vertex 25.252157240145 -43.7380193406495 1.0
vertex 35.7119432481911 -35.7119432481911 1.0
endloop
endfacet
facet normal -0.866025403784439 0.5 0.0
outer loop
vertex 43.3012701892219 -25.0 1.5
vertex 35.3553390593274 -35.3553390593274 1.0
vertex 35.3553390593274 -35.3553390593274 1.5
endloop
endfacet
facet normal -0.707106781186547 0.707106781186548 0.0
outer loop
vertex 35.3553390593274 -35.3553390593274 1.0
vertex 43.3012701892219 -25.0 1.5
vertex 43.3012701892219 -25.0 1.0
endloop
endfacet
facet normal 0.497847433338282 -0.497847433338283 0.710137920573861
outer loop
vertex 35.7119432481911 -35.7119432481911 1.0
vertex 43.3012701892219 -25.0 1.5
vertex 35.3553390593274 -35.3553390593274 1.5
endloop
endfacet
facet normal 0.609736090716528 -0.352031296109818 0.710137920573861
outer loop
vertex 43.3012701892219 -25.0 1.5
vertex 35.7119432481911 -35.7119432481911 1.0
vertex 43.7380193406495 -25.2521572401451 1.0
endloop
endfacet
facet normal -0.965925826289068 0.258819045102521 0.0
outer loop
vertex 48.2962913144534 -12.9409522551261 1.5
vertex 43.3012701892219 -25.0 1.0
vertex 43.3012701892219 -25.0 1.5
endloop
endfacet
facet normal -0.866025403784439 0.5 0.0
outer loop
vertex 43.3012701892219 -25.0 1.0
vertex 48.2962913144534 -12.9409522551261 1.5
vertex 48.2962913144534 -12.9409522551261 1.0
endloop
endfacet
facet normal 0.609736090716528 -0.352031296109818 0.710137920573861
outer loop
vertex 43.7380193406495 -25.2521572401451 1.0
vertex 48.2962913144534 -12.9409522551261 1.5
vertex 43.3012701892219 -25.0 1.5
endloop
endfacet
facet normal 0.680072241148975 -0.182224807810692 0.71013792057386
outer loop
vertex 48.2962913144534 -12.9409522551261 1.5
vertex 43.7380193406495 -25.2521572401451 1.0
vertex 48.7834216955371 -13.0714784473461 1.0
endloop
endfacet
facet normal -1.0 2.3168885728682e-16 0.0
outer loop
vertex 50.0 0.0 1.5
vertex 48.2962913144534 -12.9409522551261 1.0
vertex 48.2962913144534 -12.9409522551261 1.5
endloop
endfacet
facet normal -0.965925826289068 0.258819045102521 0.0
outer loop
vertex 48.2962913144534 -12.9409522551261 1.0
vertex 50.0 0.0 1.5
vertex 50.0 0.0 1.0
endloop
endfacet
facet normal 0.680072241148976 -0.182224807810692 0.71013792057386
outer loop
vertex 48.7834216955371 -13.0714784473461 1.0
vertex 50.0 0.0 1.5
vertex 48.2962913144534 -12.9409522551261 1.5
endloop
endfacet
facet normal 0.704062592219638 -2.0106419888877e-16 0.710137920573859
outer loop
vertex 50.0 0.0 1.5
vertex 48.7834216955371 -13.0714784473461 1.0
vertex 50.5043144802901 2.8199664825479e-15 1.0
endloop
endfacet
facet normal -0.965925826289068 -0.258819045102521 0.0
outer loop
vertex 48.2962913144534 12.940952255126 1.5
vertex 50.0 0.0 1.0
vertex 50.0 0.0 1.5
endloop
endfacet
facet normal -1.0 2.3168885728682e-16 0.0
outer loop
vertex 50.0 0.0 1.0
vertex 48.2962913144534 12.940952255126 1.5
vertex 48.2962913144534 12.940952255126 1.0
endloop
endfacet
facet normal 0.704062592219638 -2.0106419888877e-16 0.710137920573859
outer loop
vertex 50.0 0.0 1.5
vertex 48.7834216955372 13.0714784473461 1.0
vertex 48.2962913144534 12.940952255126 1.5
endloop
endfacet
facet normal 0.680072241148978 0.182224807810693 0.710137920573857
outer loop
vertex 48.7834216955372 13.0714784473461 1.0
vertex 50.0 0.0 1.5
vertex 50.5043144802901 2.8199664825479e-15 1.0
endloop
endfacet
facet normal -0.866025403784439 -0.5 0.0
outer loop
vertex 43.3012701892219 25.0 1.5
vertex 48.2962913144534 12.940952255126 1.0
vertex 48.2962913144534 12.940952255126 1.5
endloop
endfacet
facet normal -0.965925826289068 -0.258819045102521 0.0
outer loop
vertex 48.2962913144534 12.940952255126 1.0
vertex 43.3012701892219 25.0 1.5
vertex 43.3012701892219 25.0 1.0
endloop
endfacet
facet normal 0.680072241148978 0.182224807810692 0.710137920573857
outer loop
vertex 48.2962913144534 12.940952255126 1.5
vertex 43.7380193406495 25.252157240145 1.0
vertex 43.3012701892219 25.0 1.5
endloop
endfacet
facet normal 0.609736090716532 0.35203129610982 0.710137920573857
outer loop
vertex 43.7380193406495 25.252157240145 1.0
vertex 48.2962913144534 12.940952255126 1.5
vertex 48.7834216955372 13.0714784473461 1.0
endloop
endfacet
facet normal -0.707106781186548 -0.707106781186547 0.0
outer loop
vertex 35.3553390593274 35.3553390593274 1.5
vertex 43.3012701892219 25.0 1.0
vertex 43.3012701892219 25.0 1.5
endloop
endfacet
facet normal -0.866025403784439 -0.5 0.0
outer loop
vertex 43.3012701892219 25.0 1.0
vertex 35.3553390593274 35.3553390593274 1.5
vertex 35.3553390593274 35.3553390593274 1.0
endloop
endfacet
facet normal 0.609736090716532 0.35203129610982 0.710137920573857
outer loop
vertex 43.3012701892219 25.0 1.5
vertex 35.7119432481911 35.711943248191 1.0
vertex 35.3553390593274 35.3553390593274 1.5
endloop
endfacet
facet normal 0.497847433338287 0.497847433338286 0.710137920573857
outer loop
vertex 35.7119432481911 35.711943248191 1.0
vertex 43.3012701892219 25.0 1.5
vertex 43.7380193406495 25.252157240145 1.0
endloop
endfacet
facet normal -0.707106781186548 -0.707106781186547 0.0
outer loop
vertex 35.3553390593274 35.3553390593274 1.5
vertex 25.0 43.3012701892219 1.0
vertex 35.3553390593274 35.3553390593274 1.0
endloop
endfacet
facet normal -0.5 -0.866025403784439 0.0
outer loop
vertex 25.0 43.3012701892219 1.0
vertex 35.3553390593274 35.3553390593274 1.5
vertex 25.0 43.3012701892219 1.5
endloop
endfacet
facet normal 0.497847433338286 0.497847433338286 0.710137920573857
outer loop
vertex 35.3553390593274 35.3553390593274 1.5
vertex 25.252157240145 43.7380193406495 1.0
vertex 25.0 43.3012701892219 1.5
endloop
endfacet
facet normal 0.35203129610982 0.609736090716531 0.710137920573857
outer loop
vertex 25.252157240145 43.7380193406495 1.0
vertex 35.3553390593274 35.3553390593274 1.5
vertex 35.7119432481911 35.711943248191 1.0
endloop
endfacet
facet normal -0.5 -0.866025403784439 0.0
outer loop
vertex 25.0 43.3012701892219 1.5
vertex 12.940952255126 48.2962913144534 1.0
vertex 25.0 43.3012701892219 1.0
endloop
endfacet
facet normal -0.258819045102521 -0.965925826289068 0.0
outer loop
vertex 12.940952255126 48.2962913144534 1.0
vertex 25.0 43.3012701892219 1.5
vertex 12.940952255126 48.2962913144534 1.5
endloop
endfacet
facet normal 0.35203129610982 0.609736090716532 0.710137920573857
outer loop
vertex 25.0 43.3012701892219 1.5
vertex 13.0714784473461 48.7834216955371 1.0
vertex 12.940952255126 48.2962913144534 1.5
endloop
endfacet
facet normal 0.182224807810693 0.680072241148978 0.710137920573858
outer loop
vertex 13.0714784473461 48.7834216955371 1.0
vertex 25.0 43.3012701892219 1.5
vertex 25.252157240145 43.7380193406495 1.0
endloop
endfacet
facet normal -0.258819045102521 -0.965925826289068 0.0
outer loop
vertex 12.940952255126 48.2962913144534 1.5
vertex 3.06161699786838e-15 50.0 1.0
vertex 12.940952255126 48.2962913144534 1.0
endloop
endfacet
facet normal -1.87133307808585e-16 -1.0 0.0
outer loop
vertex 3.06161699786838e-15 50.0 1.0
vertex 12.940952255126 48.2962913144534 1.5
vertex 2.8199664825479e-15 50.0 1.5
endloop
endfacet
facet normal 3.85373047870142e-16 0.704062592219639 0.710137920573858
outer loop
vertex 2.8199664825479e-15 50.0 1.5
vertex 13.0714784473461 48.7834216955371 1.0
vertex 0.0 50.5043144802901 1.0
endloop
endfacet
facet normal 0.182224807810693 0.680072241148978 0.710137920573858
outer loop
vertex 13.0714784473461 48.7834216955371 1.0
vertex 2.8199664825479e-15 50.0 1.5
vertex 12.940952255126 48.2962913144534 1.5
endloop
endfacet
facet normal -1.1584442864341e-16 -1.0 0.0
outer loop
vertex 2.8199664825479e-15 50.0 1.5
vertex -12.940952255126 48.2962913144534 1.0
vertex 3.06161699786838e-15 50.0 1.0
endloop
endfacet
facet normal 0.25881904510252 -0.965925826289068 0.0
outer loop
vertex -12.940952255126 48.2962913144534 1.0
vertex 2.8199664825479e-15 50.0 1.5
vertex -12.940952255126 48.2962913144534 1.5
endloop
endfacet
facet normal -0.182224807810692 0.680072241148978 0.710137920573858
outer loop
vertex -12.940952255126 48.2962913144534 1.5
vertex 0.0 50.5043144802901 1.0
vertex -13.0714784473461 48.7834216955372 1.0
endloop
endfacet
facet normal -1.0373004723099e-16 0.704062592219639 0.710137920573858
outer loop
vertex 0.0 50.5043144802901 1.0
vertex -12.940952255126 48.2962913144534 1.5
vertex 2.8199664825479e-15 50.0 1.5
endloop
endfacet
facet normal 0.25881904510252 -0.965925826289068 0.0
outer loop
vertex -12.940952255126 48.2962913144534 1.5
vertex -25.0 43.3012701892219 1.0
vertex -12.940952255126 48.2962913144534 1.0
endloop
endfacet
facet normal 0.5 -0.866025403784439 0.0
outer loop
vertex -25.0 43.3012701892219 1.0
vertex -12.940952255126 48.2962913144534 1.5
vertex -25.0 43.3012701892219 1.5
endloop
endfacet
facet normal -0.35203129610982 0.609736090716532 0.710137920573857
outer loop
vertex -25.0 43.3012701892219 1.5
vertex -13.0714784473461 48.7834216955372 1.0
vertex -25.252157240145 43.7380193406495 1.0
endloop
endfacet
facet normal -0.182224807810693 0.680072241148978 0.710137920573858
outer loop
vertex -13.0714784473461 48.7834216955372 1.0
vertex -25.0 43.3012701892219 1.5
vertex -12.940952255126 48.2962913144534 1.5
endloop
endfacet
facet normal 0.5 -0.866025403784439 0.0
outer loop
vertex -25.0 43.3012701892219 1.5
vertex -35.3553390593274 35.3553390593274 1.0
vertex -25.0 43.3012701892219 1.0
endloop
endfacet
facet normal 0.707106781186547 -0.707106781186548 0.0
outer loop
vertex -35.3553390593274 35.3553390593274 1.0
vertex -25.0 43.3012701892219 1.5
vertex -35.3553390593274 35.3553390593274 1.5
endloop
endfacet
facet normal -0.497847433338286 0.497847433338286 0.710137920573858
outer loop
vertex -35.3553390593274 35.3553390593274 1.5
vertex -25.252157240145 43.7380193406495 1.0
vertex -35.711943248191 35.7119432481911 1.0
endloop
endfacet
facet normal -0.35203129610982 0.609736090716532 0.710137920573857
outer loop
vertex -25.252157240145 43.7380193406495 1.0
vertex -35.3553390593274 35.3553390593274 1.5
vertex -25.0 43.3012701892219 1.5
endloop
endfacet
facet normal 0.707106781186547 -0.707106781186548 0.0
outer loop
vertex -35.3553390593274 35.3553390593274 1.0
vertex -43.3012701892219 25.0 1.5
vertex -43.3012701892219 25.0 1.0
endloop
endfacet
facet normal 0.866025403784439 -0.5 0.0
outer loop
vertex -43.3012701892219 25.0 1.5
vertex -35.3553390593274 35.3553390593274 1.0
vertex -35.3553390593274 35.3553390593274 1.5
endloop
endfacet
facet normal -0.609736090716529 0.352031296109819 0.71013792057386
outer loop
vertex -43.3012701892219 25.0 1.5
vertex -35.711943248191 35.7119432481911 1.0
vertex -43.7380193406495 25.2521572401451 1.0
endloop
endfacet
facet normal -0.497847433338285 0.497847433338286 0.710137920573858
outer loop
vertex -35.711943248191 35.7119432481911 1.0
vertex -43.3012701892219 25.0 1.5
vertex -35.3553390593274 35.3553390593274 1.5
endloop
endfacet
facet normal 0.866025403784439 -0.5 0.0
outer loop
vertex -43.3012701892219 25.0 1.0
vertex -48.2962913144534 12.9409522551261 1.5
vertex -48.2962913144534 12.9409522551261 1.0
endloop
endfacet
facet normal 0.965925826289068 -0.258819045102521 0.0
outer loop
vertex -48.2962913144534 12.9409522551261 1.5
vertex -43.3012701892219 25.0 1.0
vertex -43.3012701892219 25.0 1.5
endloop
endfacet
facet normal -0.680072241148975 0.182224807810692 0.71013792057386
outer loop
vertex -48.2962913144534 12.9409522551261 1.5
vertex -43.7380193406495 25.2521572401451 1.0
vertex -48.7834216955372 13.0714784473461 1.0
endloop
endfacet
facet normal -0.609736090716529 0.352031296109818 0.71013792057386
outer loop
vertex -43.7380193406495 25.2521572401451 1.0
vertex -48.2962913144534 12.9409522551261 1.5
vertex -43.3012701892219 25.0 1.5
endloop
endfacet
facet normal 1.0 -3.7426661561717e-16 0.0
outer loop
vertex -50.0 6.12323399573677e-15 1.0
vertex -48.2962913144534 12.9409522551261 1.5
vertex -50.0 5.63993296509579e-15 1.5
endloop
endfacet
facet normal 0.965925826289068 -0.258819045102521 0.0
outer loop
vertex -48.2962913144534 12.9409522551261 1.5
vertex -50.0 6.12323399573677e-15 1.0
vertex -48.2962913144534 12.9409522551261 1.0
endloop
endfacet
facet normal -0.704062592219637 2.26197223749866e-16 0.71013792057386
outer loop
vertex -50.0 5.63993296509579e-15 1.5
vertex -48.7834216955372 13.0714784473461 1.0
vertex -50.5043144802901 5.63993296509579e-15 1.0
endloop
endfacet
facet normal -0.680072241148975 0.182224807810692 0.710137920573861
outer loop
vertex -48.7834216955372 13.0714784473461 1.0
vertex -50.0 5.63993296509579e-15 1.5
vertex -48.2962913144534 12.9409522551261 1.5
endloop
endfacet
facet normal 1.0 -3.7426661561717e-16 0.0
outer loop
vertex -50.0 6.12323399573677e-15 1.0
vertex -48.2962913144534 -12.940952255126 1.5
vertex -48.2962913144534 -12.940952255126 1.0
endloop
endfacet
facet normal 0.965925826289068 0.25881904510252 0.0
outer loop
vertex -48.2962913144534 -12.940952255126 1.5
vertex -50.0 6.12323399573677e-15 1.0
vertex -50.0 5.63993296509579e-15 1.5
endloop
endfacet
facet normal -0.680072241148976 -0.182224807810691 0.71013792057386
outer loop
vertex -48.7834216955372 -13.0714784473461 1.0
vertex -50.0 5.63993296509579e-15 1.5
vertex -50.5043144802901 5.63993296509579e-15 1.0
endloop
endfacet
facet normal -0.704062592219637 2.26197223749866e-16 0.71013792057386
outer loop
vertex -50.0 5.63993296509579e-15 1.5
vertex -48.7834216955372 -13.0714784473461 1.0
vertex -48.2962913144534 -12.940952255126 1.5
endloop
endfacet
facet normal 0.965925826289068 0.25881904510252 0.0
outer loop
vertex -48.2962913144534 -12.940952255126 1.0
vertex -43.3012701892219 -25.0 1.5
vertex -43.3012701892219 -25.0 1.0
endloop
endfacet
facet normal 0.866025403784439 0.5 0.0
outer loop
vertex -43.3012701892219 -25.0 1.5
vertex -48.2962913144534 -12.940952255126 1.0
vertex -48.2962913144534 -12.940952255126 1.5
endloop
endfacet
facet normal -0.609736090716529 -0.352031296109817 0.710137920573861
outer loop
vertex -43.7380193406495 -25.252157240145 1.0
vertex -48.2962913144534 -12.940952255126 1.5
vertex -48.7834216955372 -13.0714784473461 1.0
endloop
endfacet
facet normal -0.680072241148976 -0.182224807810691 0.71013792057386
outer loop
vertex -48.2962913144534 -12.940952255126 1.5
vertex -43.7380193406495 -25.252157240145 1.0
vertex -43.3012701892219 -25.0 1.5
endloop
endfacet
facet normal 0.866025403784439 0.5 0.0
outer loop
vertex -43.3012701892219 -25.0 1.0
vertex -35.3553390593274 -35.3553390593274 1.5
vertex -35.3553390593274 -35.3553390593274 1.0
endloop
endfacet
facet normal 0.707106781186548 0.707106781186547 0.0
outer loop
vertex -35.3553390593274 -35.3553390593274 1.5
vertex -43.3012701892219 -25.0 1.0
vertex -43.3012701892219 -25.0 1.5
endloop
endfacet
facet normal -0.497847433338283 -0.497847433338282 0.710137920573862
outer loop
vertex -35.7119432481911 -35.711943248191 1.0
vertex -43.3012701892219 -25.0 1.5
vertex -43.7380193406495 -25.252157240145 1.0
endloop
endfacet
facet normal -0.609736090716529 -0.352031296109817 0.710137920573861
outer loop
vertex -43.3012701892219 -25.0 1.5
vertex -35.7119432481911 -35.711943248191 1.0
vertex -35.3553390593274 -35.3553390593274 1.5
endloop
endfacet
facet normal 0.707106781186548 0.707106781186547 0.0
outer loop
vertex -35.3553390593274 -35.3553390593274 1.5
vertex -25.0 -43.3012701892219 1.0
vertex -35.3553390593274 -35.3553390593274 1.0
endloop
endfacet
facet normal 0.5 0.866025403784438 0.0
outer loop
vertex -25.0 -43.3012701892219 1.0
vertex -35.3553390593274 -35.3553390593274 1.5
vertex -25.0 -43.3012701892219 1.5
endloop
endfacet
facet normal -0.352031296109817 -0.609736090716526 0.710137920573864
outer loop
vertex -25.2521572401451 -43.7380193406495 1.0
vertex -35.3553390593274 -35.3553390593274 1.5
vertex -35.7119432481911 -35.711943248191 1.0
endloop
endfacet
facet normal -0.497847433338283 -0.497847433338282 0.710137920573862
outer loop
vertex -35.3553390593274 -35.3553390593274 1.5
vertex -25.2521572401451 -43.7380193406495 1.0
vertex -25.0 -43.3012701892219 1.5
endloop
endfacet
facet normal 0.5 0.866025403784438 0.0
outer loop
vertex -25.0 -43.3012701892219 1.5
vertex -12.9409522551261 -48.2962913144534 1.0
vertex -25.0 -43.3012701892219 1.0
endloop
endfacet
facet normal 0.258819045102521 0.965925826289068 0.0
outer loop
vertex -12.9409522551261 -48.2962913144534 1.0
vertex -25.0 -43.3012701892219 1.5
vertex -12.9409522551261 -48.2962913144534 1.5
endloop
endfacet
facet normal -0.182224807810691 -0.680072241148972 0.710137920573863
outer loop
vertex -13.0714784473461 -48.7834216955372 1.0
vertex -25.0 -43.3012701892219 1.5
vertex -25.2521572401451 -43.7380193406495 1.0
endloop
endfacet
facet normal -0.352031296109817 -0.609736090716526 0.710137920573864
outer loop
vertex -25.0 -43.3012701892219 1.5
vertex -13.0714784473461 -48.7834216955372 1.0
vertex -12.9409522551261 -48.2962913144534 1.5
endloop
endfacet
facet normal 0.258819045102521 0.965925826289068 0.0
outer loop
vertex -12.9409522551261 -48.2962913144534 1.5
vertex -9.18485099360515e-15 -50.0 1.0
vertex -12.9409522551261 -48.2962913144534 1.0
endloop
endfacet
facet normal 5.52488813530108e-16 1.0 0.0
outer loop
vertex -9.18485099360515e-15 -50.0 1.0
vertex -12.9409522551261 -48.2962913144534 1.5
vertex -8.45989944764369e-15 -50.0 1.5
endloop
endfacet
facet normal -3.77200171749055e-17 -0.704062592219635 0.710137920573862
outer loop
vertex -5.63993296509579e-15 -50.5043144802901 1.0
vertex -12.9409522551261 -48.2962913144534 1.5
vertex -13.0714784473461 -48.7834216955372 1.0
endloop
endfacet
facet normal -0.182224807810691 -0.680072241148972 0.710137920573863
outer loop
vertex -12.9409522551261 -48.2962913144534 1.5
vertex -5.63993296509579e-15 -50.5043144802901 1.0
vertex -8.45989944764369e-15 -50.0 1.5
endloop
endfacet
facet normal 3.20799956243289e-16 1.0 0.0
outer loop
vertex -8.45989944764369e-15 -50.0 1.5
vertex 12.940952255126 -48.2962913144534 1.0
vertex -9.18485099360515e-15 -50.0 1.0
endloop
endfacet
facet normal -0.25881904510252 0.965925826289068 0.0
outer loop
vertex 12.940952255126 -48.2962913144534 1.0
vertex -8.45989944764369e-15 -50.0 1.5
vertex 12.940952255126 -48.2962913144534 1.5
endloop
endfacet
facet normal -3.77200171749055e-17 -0.704062592219635 0.710137920573862
outer loop
vertex -5.63993296509579e-15 -50.5043144802901 1.0
vertex 12.940952255126 -48.2962913144534 1.5
vertex -8.45989944764369e-15 -50.0 1.5
endloop
endfacet
facet normal 0.182224807810691 -0.680072241148974 0.710137920573861
outer loop
vertex 12.940952255126 -48.2962913144534 1.5
vertex -5.63993296509579e-15 -50.5043144802901 1.0
vertex 13.0714784473461 -48.7834216955372 1.0
endloop
endfacet
facet normal 0.0 0.0 -1.0
outer loop
vertex -48.7834216955372 13.0714784473461 0.0
vertex -50.0 6.12323399573677e-15 0.0
vertex -50.5043144802901 5.63993296509579e-15 0.0
endloop
endfacet
facet normal 0.0 0.0 -1.0
outer loop
vertex -50.0 6.12323399573677e-15 0.0
vertex -48.7834216955372 13.0714784473461 0.0
vertex -48.2962913144534 12.9409522551261 0.0
endloop
endfacet
facet normal 0.0 0.0 -1.0
outer loop
vertex -48.2962913144534 12.9409522551261 0.0
vertex -48.7834216955372 13.0714784473461 0.0
vertex -43.7380193406495 25.2521572401451 0.0
endloop
endfacet
facet normal 0.0 0.0 -1.0
outer loop
vertex -48.2962913144534 12.9409522551261 0.0
vertex -43.7380193406495 25.2521572401451 0.0
vertex -43.3012701892219 25.0 0.0
endloop
endfacet
facet normal 0.0 0.0 -1.0
outer loop
vertex -43.3012701892219 25.0 0.0
vertex -43.7380193406495 25.2521572401451 0.0
vertex -35.711943248191 35.7119432481911 0.0
endloop
endfacet
facet normal 0.0 0.0 -1.0
outer loop
vertex -43.3012701892219 25.0 0.0
vertex -35.711943248191 35.7119432481911 0.0
vertex -35.3553390593274 35.3553390593274 0.0
endloop
endfacet
facet normal 0.0 0.0 -1.0
outer loop
vertex -35.3553390593274 35.3553390593274 0.0
vertex -35.711943248191 35.7119432481911 0.0
vertex -25.252157240145 43.7380193406495 0.0
endloop
endfacet
facet normal 0.0 0.0 -1.0
outer loop
vertex -35.3553390593274 35.3553390593274 0.0
vertex -25.252157240145 43.7380193406495 0.0
vertex -25.0 43.3012701892219 0.0
endloop
endfacet
facet normal 0.0 0.0 -1.0
outer loop
vertex -25.0 43.3012701892219 0.0
vertex -25.252157240145 43.7380193406495 0.0
vertex -13.0714784473461 48.7834216955372 0.0
endloop
endfacet
facet normal 0.0 0.0 -1.0
outer loop
vertex -25.0 43.3012701892219 0.0
vertex -13.0714784473461 48.7834216955372 0.0
vertex -12.940952255126 48.2962913144534 0.0
endloop
endfacet
facet normal 0.0 0.0 -1.0
outer loop
vertex -12.940952255126 48.2962913144534 0.0
vertex -13.0714784473461 48.7834216955372 0.0
vertex 0.0 50.5043144802901 0.0
endloop
endfacet
facet normal 0.0 0.0 -1.0
outer loop
vertex -12.940952255126 48.2962913144534 0.0
vertex 0.0 50.5043144802901 0.0
vertex 3.06161699786838e-15 50.0 0.0
endloop
endfacet
facet normal 0.0 0.0 -1.0
outer loop
vertex 3.06161699786838e-15 50.0 0.0
vertex 0.0 50.5043144802901 0.0
vertex 13.0714784473461 48.7834216955371 0.0
endloop
endfacet
facet normal 0.0 0.0 -1.0
outer loop
vertex 3.06161699786838e-15 50.0 0.0
vertex 13.0714784473461 48.7834216955371 0.0
vertex 12.940952255126 48.2962913144534 0.0
endloop
endfacet
facet normal 0.0 0.0 -1.0
outer loop
vertex 12.940952255126 48.2962913144534 0.0
vertex 13.0714784473461 48.7834216955371 0.0
vertex 25.0 43.3012701892219 0.0
endloop
endfacet
facet normal 0.0 0.0 -1.0
outer loop
vertex 25.0 43.3012701892219 0.0
vertex 13.0714784473461 48.7834216955371 0.0
vertex 25.252157240145 43.7380193406495 0.0
endloop
endfacet
facet normal 0.0 0.0 -1.0
outer loop
vertex 25.0 43.3012701892219 0.0
vertex 25.252157240145 43.7380193406495 0.0
vertex 35.3553390593274 35.3553390593274 0.0
endloop
endfacet
facet normal 0.0 0.0 -1.0
outer loop
vertex 35.3553390593274 35.3553390593274 0.0
vertex 25.252157240145 43.7380193406495 0.0
vertex 35.7119432481911 35.711943248191 0.0
endloop
endfacet
facet normal 0.0 0.0 -1.0
outer loop
vertex 35.3553390593274 35.3553390593274 0.0
vertex 35.7119432481911 35.711943248191 0.0
vertex 43.3012701892219 25.0 0.0
endloop
endfacet
facet normal 0.0 0.0 -1.0
outer loop
vertex 43.3012701892219 25.0 0.0
vertex 35.7119432481911 35.711943248191 0.0
vertex 43.7380193406495 25.252157240145 0.0
endloop
endfacet
facet normal 0.0 0.0 -1.0
outer loop
vertex 43.3012701892219 25.0 0.0
vertex 43.7380193406495 25.252157240145 0.0
vertex 48.2962913144534 12.940952255126 0.0
endloop
endfacet
facet normal 0.0 0.0 -1.0
outer loop
vertex 48.2962913144534 12.940952255126 0.0
vertex 43.7380193406495 25.252157240145 0.0
vertex 48.7834216955372 13.0714784473461 0.0
endloop
endfacet
facet normal 0.0 0.0 -1.0
outer loop
vertex 48.2962913144534 12.940952255126 0.0
vertex 48.7834216955372 13.0714784473461 0.0
vertex 50.0 0.0 0.0
endloop
endfacet
facet normal 0.0 0.0 -1.0
outer loop
vertex 50.0 0.0 0.0
vertex 48.7834216955372 13.0714784473461 0.0
vertex 50.5043144802901 2.8199664825479e-15 0.0
endloop
endfacet
facet normal 0.0 0.0 -1.0
outer loop
vertex -50.0 6.12323399573677e-15 0.0
vertex -48.7834216955372 -13.0714784473461 0.0
vertex -50.5043144802901 5.63993296509579e-15 0.0
endloop
endfacet
facet normal 0.0 0.0 -1.0
outer loop
vertex -48.7834216955372 -13.0714784473461 0.0
vertex -50.0 6.12323399573677e-15 0.0
vertex -48.2962913144534 -12.940952255126 0.0
endloop
endfacet
facet normal 0.0 0.0 -1.0
outer loop
vertex -48.7834216955372 -13.0714784473461 0.0
vertex -48.2962913144534 -12.940952255126 0.0
vertex -43.7380193406495 -25.252157240145 0.0
endloop
endfacet
facet normal 0.0 0.0 -1.0
outer loop
vertex -43.7380193406495 -25.252157240145 0.0
vertex -48.2962913144534 -12.940952255126 0.0
vertex -43.3012701892219 -25.0 0.0
endloop
endfacet
facet normal 0.0 0.0 -1.0
outer loop
vertex -43.7380193406495 -25.252157240145 0.0
vertex -43.3012701892219 -25.0 0.0
vertex -35.7119432481911 -35.711943248191 0.0
endloop
endfacet
facet normal 0.0 0.0 -1.0
outer loop
vertex -35.7119432481911 -35.711943248191 0.0
vertex -43.3012701892219 -25.0 0.0
vertex -35.3553390593274 -35.3553390593274 0.0
endloop
endfacet
facet normal 0.0 0.0 -1.0
outer loop
vertex -35.7119432481911 -35.711943248191 0.0
vertex -35.3553390593274 -35.3553390593274 0.0
vertex -25.2521572401451 -43.7380193406495 0.0
endloop
endfacet
facet normal 0.0 0.0 -1.0
outer loop
vertex -25.2521572401451 -43.7380193406495 0.0
vertex -35.3553390593274 -35.3553390593274 0.0
vertex -25.0 -43.3012701892219 0.0
endloop
endfacet
facet normal 0.0 0.0 -1.0
outer loop
vertex -25.2521572401451 -43.7380193406495 0.0
vertex -25.0 -43.3012701892219 0.0
vertex -13.0714784473461 -48.7834216955372 0.0
endloop
endfacet
facet normal 0.0 0.0 -1.0
outer loop
vertex -13.0714784473461 -48.7834216955372 0.0
vertex -25.0 -43.3012701892219 0.0
vertex -12.9409522551261 -48.2962913144534 0.0
endloop
endfacet
facet normal 0.0 0.0 -1.0
outer loop
vertex -13.0714784473461 -48.7834216955372 0.0
vertex -12.9409522551261 -48.2962913144534 0.0
vertex -5.63993296509579e-15 -50.5043144802901 0.0
endloop
endfacet
facet normal 0.0 0.0 -1.0
outer loop
vertex -5.63993296509579e-15 -50.5043144802901 0.0
vertex -12.9409522551261 -48.2962913144534 0.0
vertex -9.18485099360515e-15 -50.0 0.0
endloop
endfacet
facet normal 0.0 0.0 -1.0
outer loop
vertex -5.63993296509579e-15 -50.5043144802901 0.0
vertex -9.18485099360515e-15 -50.0 0.0
vertex 12.940952255126 -48.2962913144534 0.0
endloop
endfacet
facet normal 0.0 0.0 -1.0
outer loop
vertex -5.63993296509579e-15 -50.5043144802901 0.0
vertex 12.940952255126 -48.2962913144534 0.0
vertex 13.0714784473461 -48.7834216955372 0.0
endloop
endfacet
facet normal 0.0 0.0 -1.0
outer loop
vertex 13.0714784473461 -48.7834216955372 0.0
vertex 12.940952255126 -48.2962913144534 0.0
vertex 25.0 -43.301270189222 0.0
endloop
endfacet
facet normal 0.0 0.0 -1.0
outer loop
vertex 13.0714784473461 -48.7834216955372 0.0
vertex 25.0 -43.301270189222 0.0
vertex 25.252157240145 -43.7380193406495 0.0
endloop
endfacet
facet normal 0.0 0.0 -1.0
outer loop
vertex 25.252157240145 -43.7380193406495 0.0
vertex 25.0 -43.301270189222 0.0
vertex 35.3553390593274 -35.3553390593274 0.0
endloop
endfacet
facet normal 0.0 0.0 -1.0
outer loop
vertex 25.252157240145 -43.7380193406495 0.0
vertex 35.3553390593274 -35.3553390593274 0.0
vertex 35.7119432481911 -35.7119432481911 0.0
endloop
endfacet
facet normal 0.0 0.0 -1.0
outer loop
vertex 35.7119432481911 -35.7119432481911 0.0
vertex 35.3553390593274 -35.3553390593274 0.0
vertex 43.3012701892219 -25.0 0.0
endloop
endfacet
facet normal 0.0 0.0 -1.0
outer loop
vertex 35.7119432481911 -35.7119432481911 0.0
vertex 43.3012701892219 -25.0 0.0
vertex 43.7380193406495 -25.2521572401451 0.0
endloop
endfacet
facet normal 0.0 0.0 -1.0
outer loop
vertex 43.7380193406495 -25.2521572401451 0.0
vertex 43.3012701892219 -25.0 0.0
vertex 48.2962913144534 -12.9409522551261 0.0
endloop
endfacet
facet normal 0.0 0.0 -1.0
outer loop
vertex 43.7380193406495 -25.2521572401451 0.0
vertex 48.2962913144534 -12.9409522551261 0.0
vertex 48.7834216955371 -13.0714784473461 0.0
endloop
endfacet
facet normal 0.0 0.0 -1.0
outer loop
vertex 48.7834216955371 -13.0714784473461 0.0
vertex 48.2962913144534 -12.9409522551261 0.0
vertex 50.0 0.0 0.0
endloop
endfacet
facet normal 0.0 0.0 -1.0
outer loop
vertex 48.7834216955371 -13.0714784473461 0.0
vertex 50.0 0.0 0.0
vertex 50.5043144802901 2.8199664825479e-15 0.0
endloop
endfacet
facet normal 0.130526192220051 -0.99144486137381 0.0
outer loop
vertex 13.0714784473461 -48.7834216955372 1.0
vertex -5.63993296509579e-15 -50.5043144802901 0.0
vertex 13.0714784473461 -48.7834216955372 0.0
endloop
endfacet
facet normal 0.130526192220051 -0.99144486137381 0.0
outer loop
vertex -5.63993296509579e-15 -50.5043144802901 0.0
vertex 13.0714784473461 -48.7834216955372 1.0
vertex -5.63993296509579e-15 -50.5043144802901 1.0
endloop
endfacet
facet normal -0.130526192220051 -0.99144486137381 -0.0
outer loop
vertex -5.63993296509579e-15 -50.5043144802901 1.0
vertex -13.0714784473461 -48.7834216955372 0.0
vertex -5.63993296509579e-15 -50.5043144802901 0.0
endloop
endfacet
facet normal -0.130526192220051 -0.99144486137381 -0.0
outer loop
vertex -13.0714784473461 -48.7834216955372 0.0
vertex -5.63993296509579e-15 -50.5043144802901 1.0
vertex -13.0714784473461 -48.7834216955372 1.0
endloop
endfacet
facet normal -0.38268343236509 -0.923879532511286 -0.0
outer loop
vertex -13.0714784473461 -48.7834216955372 1.0
vertex -25.2521572401451 -43.7380193406495 0.0
vertex -13.0714784473461 -48.7834216955372 0.0
endloop
endfacet
facet normal -0.38268343236509 -0.923879532511286 -0.0
outer loop
vertex -25.2521572401451 -43.7380193406495 0.0
vertex -13.0714784473461 -48.7834216955372 1.0
vertex -25.2521572401451 -43.7380193406495 1.0
endloop
endfacet
facet normal -0.608761429008721 -0.793353340291235 -0.0
outer loop
vertex -25.2521572401451 -43.7380193406495 1.0
vertex -35.7119432481911 -35.711943248191 0.0
vertex -25.2521572401451 -43.7380193406495 0.0
endloop
endfacet
facet normal -0.608761429008721 -0.793353340291235 -0.0
outer loop
vertex -35.7119432481911 -35.711943248191 0.0
vertex -25.2521572401451 -43.7380193406495 1.0
vertex -35.7119432481911 -35.711943248191 1.0
endloop
endfacet
facet normal -0.793353340291236 -0.60876142900872 -0.0
outer loop
vertex -43.7380193406495 -25.252157240145 1.0
vertex -35.7119432481911 -35.711943248191 0.0
vertex -35.7119432481911 -35.711943248191 1.0
endloop
endfacet
facet normal -0.793353340291236 -0.60876142900872 -0.0
outer loop
vertex -35.7119432481911 -35.711943248191 0.0
vertex -43.7380193406495 -25.252157240145 1.0
vertex -43.7380193406495 -25.252157240145 0.0
endloop
endfacet
facet normal -0.923879532511287 -0.38268343236509 -0.0
outer loop
vertex -48.7834216955372 -13.0714784473461 1.0
vertex -43.7380193406495 -25.252157240145 0.0
vertex -43.7380193406495 -25.252157240145 1.0
endloop
endfacet
facet normal -0.923879532511287 -0.38268343236509 -0.0
outer loop
vertex -43.7380193406495 -25.252157240145 0.0
vertex -48.7834216955372 -13.0714784473461 1.0
vertex -48.7834216955372 -13.0714784473461 0.0
endloop
endfacet
facet normal -0.99144486137381 -0.130526192220051 -0.0
outer loop
vertex -50.5043144802901 5.63993296509579e-15 1.0
vertex -48.7834216955372 -13.0714784473461 0.0
vertex -48.7834216955372 -13.0714784473461 1.0
endloop
endfacet
facet normal -0.99144486137381 -0.130526192220051 -0.0
outer loop
vertex -48.7834216955372 -13.0714784473461 0.0
vertex -50.5043144802901 5.63993296509579e-15 1.0
vertex -50.5043144802901 5.63993296509579e-15 0.0
endloop
endfacet
facet normal -0.99144486137381 0.130526192220051 0.0
outer loop
vertex -48.7834216955372 13.0714784473461 1.0
vertex -50.5043144802901 5.63993296509579e-15 0.0
vertex -50.5043144802901 5.63993296509579e-15 1.0
endloop
endfacet
facet normal -0.99144486137381 0.130526192220051 0.0
outer loop
vertex -50.5043144802901 5.63993296509579e-15 0.0
vertex -48.7834216955372 13.0714784473461 1.0
vertex -48.7834216955372 13.0714784473461 0.0
endloop
endfacet
facet normal -0.923879532511287 0.38268343236509 0.0
outer loop
vertex -43.7380193406495 25.2521572401451 1.0
vertex -48.7834216955372 13.0714784473461 0.0
vertex -48.7834216955372 13.0714784473461 1.0
endloop
endfacet
facet normal -0.923879532511287 0.38268343236509 0.0
outer loop
vertex -48.7834216955372 13.0714784473461 0.0
vertex -43.7380193406495 25.2521572401451 1.0
vertex -43.7380193406495 25.2521572401451 0.0
endloop
endfacet
facet normal -0.793353340291235 0.608761429008721 0.0
outer loop
vertex -35.711943248191 35.7119432481911 1.0
vertex -43.7380193406495 25.2521572401451 0.0
vertex -43.7380193406495 25.2521572401451 1.0
endloop
endfacet
facet normal -0.793353340291235 0.608761429008721 0.0
outer loop
vertex -43.7380193406495 25.2521572401451 0.0
vertex -35.711943248191 35.7119432481911 1.0
vertex -35.711943248191 35.7119432481911 0.0
endloop
endfacet
facet normal -0.60876142900872 0.793353340291235 0.0
outer loop
vertex -35.711943248191 35.7119432481911 1.0
vertex -25.252157240145 43.7380193406495 0.0
vertex -35.711943248191 35.7119432481911 0.0
endloop
endfacet
facet normal -0.60876142900872 0.793353340291235 0.0
outer loop
vertex -25.252157240145 43.7380193406495 0.0
vertex -35.711943248191 35.7119432481911 1.0
vertex -25.252157240145 43.7380193406495 1.0
endloop
endfacet
facet normal -0.38268343236509 0.923879532511287 0.0
outer loop
vertex -25.252157240145 43.7380193406495 1.0
vertex -13.0714784473461 48.7834216955372 0.0
vertex -25.252157240145 43.7380193406495 0.0
endloop
endfacet
facet normal -0.38268343236509 0.923879532511287 0.0
outer loop
vertex -13.0714784473461 48.7834216955372 0.0
vertex -25.252157240145 43.7380193406495 1.0
vertex -13.0714784473461 48.7834216955372 1.0
endloop
endfacet
facet normal -0.130526192220051 0.99144486137381 0.0
outer loop
vertex -13.0714784473461 48.7834216955372 1.0
vertex 0.0 50.5043144802901 0.0
vertex -13.0714784473461 48.7834216955372 0.0
endloop
endfacet
facet normal -0.130526192220051 0.99144486137381 0.0
outer loop
vertex 0.0 50.5043144802901 0.0
vertex -13.0714784473461 48.7834216955372 1.0
vertex 0.0 50.5043144802901 1.0
endloop
endfacet
facet normal 0.130526192220052 0.99144486137381 0.0
outer loop
vertex 0.0 50.5043144802901 1.0
vertex 13.0714784473461 48.7834216955371 0.0
vertex 0.0 50.5043144802901 0.0
endloop
endfacet
facet normal 0.130526192220052 0.99144486137381 0.0
outer loop
vertex 13.0714784473461 48.7834216955371 0.0
vertex 0.0 50.5043144802901 1.0
vertex 13.0714784473461 48.7834216955371 1.0
endloop
endfacet
facet normal 0.38268343236509 0.923879532511287 0.0
outer loop
vertex 13.0714784473461 48.7834216955371 1.0
vertex 25.252157240145 43.7380193406495 0.0
vertex 13.0714784473461 48.7834216955371 0.0
endloop
endfacet
facet normal 0.38268343236509 0.923879532511287 0.0
outer loop
vertex 25.252157240145 43.7380193406495 0.0
vertex 13.0714784473461 48.7834216955371 1.0
vertex 25.252157240145 43.7380193406495 1.0
endloop
endfacet
facet normal 0.608761429008721 0.793353340291235 0.0
outer loop
vertex 25.252157240145 43.7380193406495 1.0
vertex 35.7119432481911 35.711943248191 0.0
vertex 25.252157240145 43.7380193406495 0.0
endloop
endfacet
facet normal 0.608761429008721 0.793353340291235 0.0
outer loop
vertex 35.7119432481911 35.711943248191 0.0
vertex 25.252157240145 43.7380193406495 1.0
vertex 35.7119432481911 35.711943248191 1.0
endloop
endfacet
facet normal 0.793353340291235 0.60876142900872 0.0
outer loop
vertex 35.7119432481911 35.711943248191 0.0
vertex 43.7380193406495 25.252157240145 1.0
vertex 43.7380193406495 25.252157240145 0.0
endloop
endfacet
facet normal 0.793353340291235 0.60876142900872 0.0
outer loop
vertex 43.7380193406495 25.252157240145 1.0
vertex 35.7119432481911 35.711943248191 0.0
vertex 35.7119432481911 35.711943248191 1.0
endloop
endfacet
facet normal 0.923879532511287 0.38268343236509 0.0
outer loop
vertex 43.7380193406495 25.252157240145 0.0
vertex 48.7834216955372 13.0714784473461 1.0
vertex 48.7834216955372 13.0714784473461 0.0
endloop
endfacet
facet normal 0.923879532511287 0.38268343236509 0.0
outer loop
vertex 48.7834216955372 13.0714784473461 1.0
vertex 43.7380193406495 25.252157240145 0.0
vertex 43.7380193406495 25.252157240145 1.0
endloop
endfacet
facet normal 0.99144486137381 0.130526192220051 0.0
outer loop
vertex 48.7834216955372 13.0714784473461 0.0
vertex 50.5043144802901 2.8199664825479e-15 1.0
vertex 50.5043144802901 2.8199664825479e-15 0.0
endloop
endfacet
facet normal 0.99144486137381 0.130526192220051 0.0
outer loop
vertex 50.5043144802901 2.8199664825479e-15 1.0
vertex 48.7834216955372 13.0714784473461 0.0
vertex 48.7834216955372 13.0714784473461 1.0
endloop
endfacet
facet normal 0.99144486137381 -0.130526192220051 0.0
outer loop
vertex 50.5043144802901 2.8199664825479e-15 0.0
vertex 48.7834216955371 -13.0714784473461 1.0
vertex 48.7834216955371 -13.0714784473461 0.0
endloop
endfacet
facet normal 0.99144486137381 -0.130526192220051 0.0
outer loop
vertex 48.7834216955371 -13.0714784473461 1.0
vertex 50.5043144802901 2.8199664825479e-15 0.0
vertex 50.5043144802901 2.8199664825479e-15 1.0
endloop
endfacet
facet normal 0.923879532511286 -0.38268343236509 0.0
outer loop
vertex 48.7834216955371 -13.0714784473461 0.0
vertex 43.7380193406495 -25.2521572401451 1.0
vertex 43.7380193406495 -25.2521572401451 0.0
endloop
endfacet
facet normal 0.923879532511286 -0.38268343236509 0.0
outer loop
vertex 43.7380193406495 -25.2521572401451 1.0
vertex 48.7834216955371 -13.0714784473461 0.0
vertex 48.7834216955371 -13.0714784473461 1.0
endloop
endfacet
facet normal 0.793353340291235 -0.608761429008721 0.0
outer loop
vertex 43.7380193406495 -25.2521572401451 0.0
vertex 35.7119432481911 -35.7119432481911 1.0
vertex 35.7119432481911 -35.7119432481911 0.0
endloop
endfacet
facet normal 0.793353340291235 -0.608761429008721 0.0
outer loop
vertex 35.7119432481911 -35.7119432481911 1.0
vertex 43.7380193406495 -25.2521572401451 0.0
vertex 43.7380193406495 -25.2521572401451 1.0
endloop
endfacet
facet normal 0.60876142900872 -0.793353340291236 0.0
outer loop
vertex 35.7119432481911 -35.7119432481911 1.0
vertex 25.252157240145 -43.7380193406495 0.0
vertex 35.7119432481911 -35.7119432481911 0.0
endloop
endfacet
facet normal 0.60876142900872 -0.793353340291236 0.0
outer loop
vertex 25.252157240145 -43.7380193406495 0.0
vertex 35.7119432481911 -35.7119432481911 1.0
vertex 25.252157240145 -43.7380193406495 1.0
endloop
endfacet
facet normal 0.382683432365089 -0.923879532511287 0.0
outer loop
vertex 25.252157240145 -43.7380193406495 1.0
vertex 13.0714784473461 -48.7834216955372 0.0
vertex 25.252157240145 -43.7380193406495 0.0
endloop
endfacet
facet normal 0.382683432365089 -0.923879532511287 0.0
outer loop
vertex 13.0714784473461 -48.7834216955372 0.0
vertex 25.252157240145 -43.7380193406495 1.0
vertex 13.0714784473461 -48.7834216955372 1.0
endloop
endfacet
endsolid T1 Winner circle plaque
