solid Team_One_logo
facet normal 0.0 0.0 -1.0
outer loop
vertex 70.6328977238433 70.2059841062392 0.999999999999998
vertex 28.2651134462407 61.6983208054148 0.999999999999998
vertex 28.2651134462407 70.2059841062392 0.999999999999998
endloop
endfacet
facet normal 0.0 0.0 -1.0
outer loop
vertex 28.2651134462407 61.6983208054148 0.999999999999998
vertex 70.6328977238433 70.2059841062392 0.999999999999998
vertex 70.6328977238433 61.6983208054148 0.999999999999998
endloop
endfacet
facet normal 0.0 0.0 -1.0
outer loop
vertex 53.7002534138403 58.9525797036706 0.999999999999998
vertex 45.2012028517289 25.173418470796 0.999999999999998
vertex 45.2012028517289 55.4558077861421 0.999999999999998
endloop
endfacet
facet normal 0.0 0.0 -1.0
outer loop
vertex 45.2012028517289 25.173418470796 0.999999999999998
vertex 53.7002534138403 58.9525797036706 0.999999999999998
vertex 53.7002534138403 25.173418470796 0.999999999999998
endloop
endfacet
facet normal 0.707106781186549 0.0 0.707106781186546
outer loop
vertex 70.6328977238433 70.2059841062392 5.8
vertex 70.4328977238433 61.8983208054148 6.0
vertex 70.6328977238433 61.6983208054148 5.8
endloop
endfacet
facet normal 0.707106781186549 0.0 0.707106781186546
outer loop
vertex 70.4328977238433 61.8983208054148 6.0
vertex 70.6328977238433 70.2059841062392 5.8
vertex 70.4328977238433 70.0059841062392 6.0
endloop
endfacet
facet normal -1.0 -2.8374063548422e-16 -5.53242540882442e-16
outer loop
vertex 28.2651134462407 70.0059841062392 5.8
vertex 28.2651134462407 61.6983208054148 0.999999999999998
vertex 28.2651134462407 61.6983208054148 5.8
endloop
endfacet
facet normal -1.0 -2.8374063548422e-16 -5.53242540882442e-16
outer loop
vertex 28.2651134462407 61.6983208054148 0.999999999999998
vertex 28.2651134462407 70.0059841062392 5.8
vertex 28.2651134462407 70.2059841062392 0.999999999999998
endloop
endfacet
facet normal -1.0 -2.8374063548422e-16 -5.53242540882442e-16
outer loop
vertex 28.2651134462407 70.2059841062392 0.999999999999998
vertex 28.2651134462407 70.0059841062392 5.8
vertex 28.2651134462407 70.2059841062392 5.8
endloop
endfacet
facet normal 0.0 0.707106781186549 0.707106781186546
outer loop
vertex 28.4651134462407 70.0059841062392 6.0
vertex 70.6328977238433 70.2059841062392 5.8
vertex 28.2651134462407 70.2059841062392 5.8
endloop
endfacet
facet normal 0.0 0.707106781186549 0.707106781186546
outer loop
vertex 70.6328977238433 70.2059841062392 5.8
vertex 28.4651134462407 70.0059841062392 6.0
vertex 70.4328977238433 70.0059841062392 6.0
endloop
endfacet
facet normal 0.0 1.0 0.0
outer loop
vertex 28.2651134462407 70.2059841062392 5.8
vertex 70.6328977238433 70.2059841062392 0.999999999999998
vertex 28.2651134462407 70.2059841062392 0.999999999999998
endloop
endfacet
facet normal 0.0 1.0 0.0
outer loop
vertex 70.6328977238433 70.2059841062392 0.999999999999998
vertex 28.2651134462407 70.2059841062392 5.8
vertex 70.6328977238433 70.2059841062392 5.8
endloop
endfacet
facet normal 0.0 -0.707106781186549 0.707106781186546
outer loop
vertex 70.4328977238433 61.8983208054148 6.0
vertex 28.2651134462407 61.6983208054148 5.8
vertex 70.6328977238433 61.6983208054148 5.8
endloop
endfacet
facet normal 0.0 -0.707106781186549 0.707106781186546
outer loop
vertex 28.2651134462407 61.6983208054148 5.8
vertex 70.4328977238433 61.8983208054148 6.0
vertex 28.4651134462407 61.8983208054148 6.0
endloop
endfacet
facet normal 0.0 0.0 1.0
outer loop
vertex 28.4651134462407 61.8983208054148 6.0
vertex 70.4328977238433 70.0059841062392 6.0
vertex 28.4651134462407 70.0059841062392 6.0
endloop
endfacet
facet normal 0.0 0.0 1.0
outer loop
vertex 70.4328977238433 70.0059841062392 6.0
vertex 28.4651134462407 61.8983208054148 6.0
vertex 70.4328977238433 61.8983208054148 6.0
endloop
endfacet
facet normal -0.269044112682376 0.653922981268404 0.707106781186544
outer loop
vertex 45.4012028517289 55.3218278891045 6.0
vertex 53.7002534138403 58.9525797036706 5.8
vertex 45.2012028517289 55.4558077861421 5.8
endloop
endfacet
facet normal -0.269044112682376 0.653922981268404 0.707106781186544
outer loop
vertex 53.7002534138403 58.9525797036706 5.8
vertex 45.4012028517289 55.3218278891045 6.0
vertex 53.5002534138403 58.6540274515459 6.0
endloop
endfacet
facet normal 0.707106781186549 0.0 0.707106781186546
outer loop
vertex 53.7002534138403 58.9525797036706 5.8
vertex 53.5002534138403 25.373418470796 6.0
vertex 53.7002534138403 25.173418470796 5.8
endloop
endfacet
facet normal 0.707106781186549 0.0 0.707106781186546
outer loop
vertex 53.5002534138403 25.373418470796 6.0
vertex 53.7002534138403 58.9525797036706 5.8
vertex 53.5002534138403 58.6540274515459 6.0
endloop
endfacet
facet normal 0.0 -0.707106781186549 0.707106781186546
outer loop
vertex 53.5002534138403 25.373418470796 6.0
vertex 45.2012028517289 25.173418470796 5.8
vertex 53.7002534138403 25.173418470796 5.8
endloop
endfacet
facet normal 0.0 -0.707106781186549 0.707106781186546
outer loop
vertex 45.2012028517289 25.173418470796 5.8
vertex 53.5002534138403 25.373418470796 6.0
vertex 45.4012028517289 25.373418470796 6.0
endloop
endfacet
facet normal -0.707106781186552 0.0 0.707106781186543
outer loop
vertex 45.4012028517289 25.373418470796 6.0
vertex 45.2012028517289 55.4558077861421 5.8
vertex 45.2012028517289 25.173418470796 5.8
endloop
endfacet
facet normal -0.707106781186552 0.0 0.707106781186543
outer loop
vertex 45.2012028517289 55.4558077861421 5.8
vertex 45.4012028517289 25.373418470796 6.0
vertex 45.4012028517289 55.3218278891045 6.0
endloop
endfacet
facet normal 0.0 0.0 1.0
outer loop
vertex 53.5002534138403 25.373418470796 6.0
vertex 45.4012028517289 55.3218278891045 6.0
vertex 45.4012028517289 25.373418470796 6.0
endloop
endfacet
facet normal 0.0 0.0 1.0
outer loop
vertex 45.4012028517289 55.3218278891045 6.0
vertex 53.5002534138403 25.373418470796 6.0
vertex 53.5002534138403 58.6540274515459 6.0
endloop
endfacet
facet normal -1.0 0.0 0.0
outer loop
vertex 45.2012028517289 55.4558077861421 5.8
vertex 45.2012028517289 25.173418470796 0.999999999999998
vertex 45.2012028517289 25.173418470796 5.8
endloop
endfacet
facet normal -1.0 0.0 0.0
outer loop
vertex 45.2012028517289 25.173418470796 0.999999999999998
vertex 45.2012028517289 55.4558077861421 5.8
vertex 45.2012028517289 55.4558077861421 0.999999999999998
endloop
endfacet
facet normal 0.0 -1.0 0.0
outer loop
vertex 53.7002534138403 25.173418470796 5.8
vertex 45.2012028517289 25.173418470796 0.999999999999998
vertex 53.7002534138403 25.173418470796 0.999999999999998
endloop
endfacet
facet normal 0.0 -1.0 0.0
outer loop
vertex 45.2012028517289 25.173418470796 0.999999999999998
vertex 53.7002534138403 25.173418470796 5.8
vertex 45.2012028517289 25.173418470796 5.8
endloop
endfacet
facet normal 1.0 0.0 0.0
outer loop
vertex 53.7002534138403 58.9525797036706 0.999999999999998
vertex 53.7002534138403 25.173418470796 5.8
vertex 53.7002534138403 25.173418470796 0.999999999999998
endloop
endfacet
facet normal 1.0 0.0 0.0
outer loop
vertex 53.7002534138403 25.173418470796 5.8
vertex 53.7002534138403 58.9525797036706 0.999999999999998
vertex 53.7002534138403 58.9525797036706 5.8
endloop
endfacet
facet normal -0.380485833032049 0.92478674885722 0.0
outer loop
vertex 45.2012028517289 55.4558077861421 5.8
vertex 53.7002534138403 58.9525797036706 0.999999999999998
vertex 45.2012028517289 55.4558077861421 0.999999999999998
endloop
endfacet
facet normal -0.380485833032049 0.92478674885722 0.0
outer loop
vertex 53.7002534138403 58.9525797036706 0.999999999999998
vertex 45.2012028517289 55.4558077861421 5.8
vertex 53.7002534138403 58.9525797036706 5.8
endloop
endfacet
facet normal 1.0 0.0 0.0
outer loop
vertex 70.6328977238433 70.2059841062392 0.999999999999998
vertex 70.6328977238433 61.6983208054148 5.8
vertex 70.6328977238433 61.6983208054148 0.999999999999998
endloop
endfacet
facet normal 1.0 0.0 0.0
outer loop
vertex 70.6328977238433 61.6983208054148 5.8
vertex 70.6328977238433 70.2059841062392 0.999999999999998
vertex 70.6328977238433 70.2059841062392 5.8
endloop
endfacet
facet normal 0.0 -1.0 0.0
outer loop
vertex 70.6328977238433 61.6983208054148 5.8
vertex 28.2651134462407 61.6983208054148 0.999999999999998
vertex 70.6328977238433 61.6983208054148 0.999999999999998
endloop
endfacet
facet normal 0.0 -1.0 0.0
outer loop
vertex 28.2651134462407 61.6983208054148 0.999999999999998
vertex 70.6328977238433 61.6983208054148 5.8
vertex 28.2651134462407 61.6983208054148 5.8
endloop
endfacet
facet normal -0.707106781186549 -7.2975678561405e-16 0.707106781186546
outer loop
vertex 28.4651134462407 61.8983208054148 6.0
vertex 28.2651134462407 70.0059841062392 5.8
vertex 28.2651134462407 61.6983208054148 5.8
endloop
endfacet
facet normal -0.707106781186549 -7.2975678561405e-16 0.707106781186546
outer loop
vertex 28.2651134462407 70.0059841062392 5.8
vertex 28.4651134462407 61.8983208054148 6.0
vertex 28.4651134462407 70.0059841062392 6.0
endloop
endfacet
facet normal -0.707106781186549 2.9899421637402e-14 0.707106781186546
outer loop
vertex 28.2651134462407 70.2059841062392 5.8
vertex 28.2651134462407 70.0059841062392 5.8
vertex 28.4651134462407 70.0059841062392 6.0
endloop
endfacet
facet normal 0.0 0.0 1.0
outer loop
vertex 28.2651134462407 61.6983208054148 5.8
vertex 28.2651134462407 70.2059841062392 5.8
vertex 28.2651134462407 70.0059841062392 5.8
endloop
endfacet
facet normal 0.0 0.0 1.0
outer loop
vertex 28.2651134462407 70.2059841062392 5.8
vertex 28.2651134462407 61.6983208054148 5.8
vertex 70.6328977238433 61.6983208054148 5.8
endloop
endfacet
facet normal 0.0 0.0 1.0
outer loop
vertex 28.2651134462407 70.2059841062392 5.8
vertex 70.6328977238433 61.6983208054148 5.8
vertex 70.6328977238433 70.2059841062392 5.8
endloop
endfacet
endsolid Team_One_logo
